<svg width="60" height="60" viewBox="0 0 60 60" fill="none" xmlns="http://www.w3.org/2000/svg">
<path d="M44.9287 6H21.7063C21.6973 6 21.6886 6.00104 21.6797 6.00135C21.671 6.00166 21.6625 6.00207 21.6538 6.00259C21.6206 6.00477 21.5879 6.0085 21.5559 6.01472C21.5553 6.01483 21.5548 6.01483 21.5542 6.01503C21.5196 6.02187 21.4863 6.03152 21.4535 6.04271C21.4476 6.04479 21.4417 6.04696 21.4359 6.04924C21.4051 6.06065 21.375 6.07361 21.3462 6.08864C21.3443 6.08968 21.3424 6.0904 21.3405 6.09144C21.3102 6.10761 21.2815 6.12606 21.2538 6.14597C21.2475 6.15043 21.2414 6.1552 21.2352 6.15986C21.2077 6.1808 21.1812 6.20299 21.1568 6.22725C21.1567 6.22735 21.1565 6.22746 21.1564 6.22756L12.8626 14.5213C12.8625 14.5214 12.8624 14.5215 12.8623 14.5216C12.838 14.5461 12.8158 14.5726 12.7948 14.6001C12.7902 14.6063 12.7855 14.6124 12.7809 14.6186C12.761 14.6463 12.7426 14.675 12.7264 14.7052C12.7254 14.7073 12.7244 14.7094 12.7234 14.7114C12.7085 14.74 12.6956 14.7698 12.6842 14.8004C12.6819 14.8065 12.6797 14.8125 12.6775 14.8187C12.6663 14.8512 12.6568 14.8844 12.6499 14.9187C12.6497 14.9199 12.6496 14.9213 12.6493 14.9225C12.6433 14.9537 12.6396 14.9856 12.6374 15.018C12.6367 15.0271 12.6363 15.0361 12.636 15.0453C12.636 15.0541 12.635 15.0626 12.635 15.0713V51.5637C12.635 52.9071 13.7279 54 15.0713 54H44.9287C46.2721 54 47.365 52.9071 47.365 51.5637V8.43629C47.365 7.09291 46.2721 6 44.9287 6ZM20.9287 8.65462V13.4125C20.9287 13.8984 20.5334 14.2937 20.0475 14.2937H15.2896L20.9287 8.65462ZM45.8099 51.5637C45.8099 52.0496 45.4146 52.4449 44.9287 52.4449H15.0713C14.5854 52.4449 14.1901 52.0496 14.1901 51.5637V15.8488H20.0475C21.3909 15.8488 22.4838 14.7559 22.4838 13.4125V7.55508H44.9287C45.4146 7.55508 45.8099 7.95038 45.8099 8.43629V51.5637Z" fill="#784F33"/>
<path d="M20.0475 19.1663H39.9525C40.3819 19.1663 40.73 18.8183 40.73 18.3887C40.73 17.9592 40.3819 17.6112 39.9525 17.6112H20.0475C19.6181 17.6112 19.27 17.9592 19.27 18.3887C19.27 18.8183 19.6181 19.1663 20.0475 19.1663Z" fill="#784F33"/>
<path d="M20.0475 23.3131H39.9525C40.3819 23.3131 40.73 22.9651 40.73 22.5356C40.73 22.1061 40.3819 21.7581 39.9525 21.7581H20.0475C19.6181 21.7581 19.27 22.1061 19.27 22.5356C19.27 22.9651 19.6181 23.3131 20.0475 23.3131Z" fill="#784F33"/>
<path d="M20.0475 27.4601H39.9525C40.3819 27.4601 40.73 27.1121 40.73 26.6826C40.73 26.2531 40.3819 25.905 39.9525 25.905H20.0475C19.6181 25.905 19.27 26.2531 19.27 26.6826C19.27 27.1121 19.6181 27.4601 20.0475 27.4601Z" fill="#784F33"/>
<path d="M20.0475 31.607H39.9525C40.3819 31.607 40.73 31.2589 40.73 30.8294C40.73 30.3999 40.3819 30.0519 39.9525 30.0519H20.0475C19.6181 30.0519 19.27 30.3999 19.27 30.8294C19.27 31.2589 19.6181 31.607 20.0475 31.607Z" fill="#784F33"/>
<path d="M20.0475 35.7538H39.9525C40.3819 35.7538 40.73 35.4058 40.73 34.9763C40.73 34.5468 40.3819 34.1987 39.9525 34.1987H20.0475C19.6181 34.1987 19.27 34.5468 19.27 34.9763C19.27 35.4058 19.6181 35.7538 20.0475 35.7538Z" fill="#784F33"/>
<path d="M30 40.0043H20.0475C19.6181 40.0043 19.27 40.3523 19.27 40.7818C19.27 41.2113 19.6181 41.5593 20.0475 41.5593H30C30.4294 41.5593 30.7775 41.2113 30.7775 40.7818C30.7775 40.3523 30.4294 40.0043 30 40.0043Z" fill="#784F33"/>
<path d="M30 44.1511H20.0475C19.6181 44.1511 19.27 44.4991 19.27 44.9287C19.27 45.3582 19.6181 45.7062 20.0475 45.7062H30C30.4294 45.7062 30.7775 45.3582 30.7775 44.9287C30.7775 44.4991 30.4294 44.1511 30 44.1511Z" fill="#784F33"/>
<path d="M37.0497 41.6631C36.3923 41.6631 35.8575 42.1979 35.8575 42.8553C35.8575 43.5127 36.3923 44.0475 37.0497 44.0475C37.7071 44.0475 38.2419 43.5127 38.2419 42.8553C38.2419 42.1979 37.7071 41.6631 37.0497 41.6631Z" fill="#784F33"/>
<path d="M37.0497 38.3456C34.563 38.3456 32.5399 40.3686 32.5399 42.8553C32.5399 45.342 34.563 47.365 37.0497 47.365C39.5363 47.365 41.5594 45.342 41.5594 42.8553C41.5594 40.3686 39.5363 38.3456 37.0497 38.3456ZM37.0497 45.8099C35.4205 45.8099 34.095 44.4845 34.095 42.8553C34.095 41.2261 35.4205 39.9007 37.0497 39.9007C38.6789 39.9007 40.0043 41.2261 40.0043 42.8553C40.0043 44.4845 38.6789 45.8099 37.0497 45.8099Z" fill="#784F33"/>
</svg>
