<svg width="61" height="60" viewBox="0 0 61 60" fill="none" xmlns="http://www.w3.org/2000/svg">
<g clip-path="url(#clip0_21_1076)">
<path d="M38.5235 6H21.975C21.523 6 21.1429 6.31276 21.1429 6.7611V8.63848H11.6321C11.18 8.63848 10.8087 8.95758 10.8087 9.40592V53.1374C10.8087 53.5858 11.18 54 11.6321 54H48.866C49.3181 54 49.6894 53.5858 49.6894 53.1374V9.40592C49.6894 8.95758 49.3181 8.63848 48.866 8.63848H39.3556V6.7611C39.3556 6.31276 38.9755 6 38.5235 6ZM22.78 7.62368H37.7185V11.277H22.78V7.62368ZM48.0527 10.2622V52.3763H12.4458V10.2622H21.1429V12.0503C21.1461 12.509 21.513 12.8836 21.975 12.9006H38.5235L38.5303 12.8816C38.9875 12.8729 39.354 12.5038 39.3556 12.0503V10.2622H48.0527Z" fill="#784F33"/>
<path d="M29.193 45.7801H26.0379L25.1142 42.2156C25.0271 41.8755 24.7317 41.6273 24.3788 41.5988C24.0287 41.5722 23.7005 41.7712 23.5654 42.0927L21.2976 47.5259L20.7892 45.3131C20.7061 44.9405 20.3764 44.6721 19.9911 44.6638H16.2029C15.7508 44.6638 15.3843 45.0273 15.3843 45.4757C15.3843 45.924 15.7508 46.2875 16.2029 46.2875H19.34L20.2764 50.3467C20.3552 50.6928 20.6497 50.9496 21.0063 50.9829C21.029 50.9849 21.0518 50.9905 21.0746 50.9905C21.4051 50.9912 21.7037 50.7938 21.8304 50.491L24.1422 44.9508L24.6114 46.7735C24.7029 47.1362 25.0271 47.3943 25.404 47.4038H29.193C29.645 47.4038 30.0115 47.0403 30.0115 46.5919C30.0115 46.1436 29.645 45.7801 29.193 45.7801Z" fill="#784F33"/>
<path d="M42.6611 47.7083H36.4553C36.0032 47.7083 35.6367 48.0718 35.6367 48.5201C35.6367 48.9684 36.0032 49.3319 36.4553 49.3319H42.6611C43.1132 49.3319 43.4797 48.9684 43.4797 48.5201C43.4797 48.0718 43.1132 47.7083 42.6611 47.7083Z" fill="#784F33"/>
<path d="M20.9664 27.6822C20.9664 28.0897 21.2713 28.4338 21.679 28.4865C22.0867 28.5392 22.4704 28.2839 22.5759 27.8899C22.6626 27.5668 22.8421 27.1304 22.9788 26.9707C23.2286 26.7384 23.5579 26.6075 23.9008 26.6048C24.2422 26.6024 24.5715 26.7316 24.8185 26.9651C25.0595 27.2148 25.1958 27.5462 25.1986 27.8919C25.1986 28.3402 25.5651 28.7037 26.0172 28.7037C26.4692 28.7037 26.8357 28.3402 26.8357 27.8919C26.8285 27.5486 26.9628 27.2168 27.2078 26.9738C27.4528 26.7308 27.7869 26.5976 28.1335 26.6048C28.4748 26.6024 28.8037 26.7316 29.0511 26.9651C29.2921 27.2148 29.428 27.5462 29.4312 27.8919V34.1924C29.428 34.3854 29.269 34.5404 29.0739 34.5404C28.8793 34.5404 28.7202 34.3854 28.717 34.1924C28.717 33.744 28.3505 33.3805 27.8985 33.3805C27.4464 33.3805 27.0799 33.744 27.0799 34.1924C27.0879 35.2789 27.9784 36.1562 29.0739 36.1562C30.1698 36.1562 31.0603 35.2789 31.0683 34.1924V27.8919C31.0611 27.5486 31.1954 27.2168 31.4404 26.9738C31.6854 26.7308 32.0196 26.5976 32.3661 26.6048C32.7074 26.6024 33.0364 26.7316 33.2838 26.9651C33.5248 27.2148 33.6607 27.5462 33.6639 27.8919C33.6639 28.3402 34.0304 28.7037 34.4824 28.7037C34.9345 28.7037 35.301 28.3402 35.301 27.8919C35.2934 27.5486 35.4281 27.2168 35.6731 26.9738C35.9177 26.7308 36.2522 26.5976 36.5987 26.6048C36.9393 26.6024 37.2674 26.7308 37.5144 26.9635C37.6515 27.1165 37.8354 27.5621 37.9237 27.8887C38.0284 28.2832 38.4121 28.5392 38.8202 28.4869C39.2282 28.4346 39.5336 28.0901 39.5336 27.6822C39.5336 22.5971 35.3773 18.4745 30.2502 18.4745C25.1231 18.4745 20.9668 22.5971 20.9668 27.6822H20.9664ZM37.4405 25.1012C36.4137 24.8015 35.3034 25.0715 34.5328 25.808C34.5208 25.8195 34.5088 25.831 34.4976 25.8429L34.4824 25.8591L34.4672 25.8429C34.4612 25.8369 34.4556 25.831 34.4496 25.8254C33.8941 25.2828 33.1455 24.9795 32.3661 24.9811C31.5963 24.9847 30.8569 25.2808 30.3001 25.808C30.2882 25.8195 30.2766 25.831 30.265 25.8429L30.2498 25.8591L30.2346 25.8429C30.229 25.8369 30.223 25.831 30.2174 25.8254C29.6619 25.2828 28.9128 24.9795 28.1335 24.9811C27.3637 24.9847 26.6243 25.2808 26.0675 25.808C26.0555 25.8195 26.0439 25.831 26.0323 25.8429L26.0172 25.8591L26.002 25.8429C25.9964 25.8369 25.9904 25.831 25.9848 25.8254C25.2146 25.0742 24.0935 24.7976 23.0583 25.104C24.1534 22.1004 27.0283 20.099 30.2486 20.0982C33.4688 20.0978 36.3445 22.098 37.4405 25.1012Z" fill="#784F33"/>
<path d="M16.6298 27.3223C16.6298 34.7712 22.7397 40.8306 30.2497 40.8306C37.7598 40.8306 43.8697 34.7708 43.8697 27.3223C43.8697 19.8738 37.7598 13.814 30.2497 13.814C22.7397 13.814 16.6298 19.8738 16.6298 27.3223ZM42.2326 27.3223C42.2326 33.886 36.8677 39.2069 30.2497 39.2069C23.6318 39.2069 18.2669 33.886 18.2669 27.3223C18.2669 20.7586 23.6318 15.4376 30.2497 15.4376C36.8645 15.4452 42.225 20.7618 42.2326 27.3223Z" fill="#784F33"/>
</g>
<defs>
<clipPath id="clip0_21_1076">
<rect width="49" height="48" fill="white" transform="translate(6 6)"/>
</clipPath>
</defs>
</svg>
