<svg width="60" height="60" viewBox="0 0 60 60" fill="none" xmlns="http://www.w3.org/2000/svg">
<g clip-path="url(#clip0_21_1088)">
<g clip-path="url(#clip1_21_1088)">
<g clip-path="url(#clip2_21_1088)">
<path d="M33.2978 41.5674C34.6462 40.2168 35.0487 38.187 34.3182 36.4238C33.5878 34.6607 31.8678 33.5106 29.9594 33.5092H29.9572C27.3515 33.5095 25.2399 35.6223 25.2402 38.2276C25.241 40.8333 27.3534 42.9449 29.959 42.9446H29.9605V42.1847L29.9646 42.9487C31.2155 42.952 32.4158 42.4546 33.2978 41.5674ZM29.9609 41.4196H29.959C28.1959 41.4189 26.7666 39.9889 26.7674 38.2257C26.7681 36.4622 28.1981 35.0333 29.9613 35.0341H29.9628C31.726 35.0333 33.1559 36.4626 33.1563 38.2257C33.157 39.9889 31.7278 41.4189 29.9646 41.4196H29.9609Z" fill="#784F33"/>
<path d="M15.5486 36.2709C15.5486 35.8498 15.2072 35.5084 14.7861 35.5084C14.3651 35.5084 14.0237 35.8498 14.0237 36.2709C14.0252 36.3327 13.9932 36.3904 13.9399 36.4217C13.8867 36.4529 13.8204 36.4529 13.7672 36.4217C13.7139 36.3904 13.6819 36.3327 13.6834 36.2709C13.6834 35.8498 13.342 35.5084 12.9209 35.5084C12.4999 35.5084 12.1585 35.8498 12.1585 36.2709C12.154 36.8796 12.4761 37.444 13.0025 37.7496C13.5285 38.0553 14.1786 38.0553 14.7046 37.7496C15.231 37.444 15.5531 36.8796 15.5486 36.2709Z" fill="#784F33"/>
<path d="M18.5162 37.9663C19.4518 37.9652 20.2102 37.2068 20.2113 36.2709C20.2113 35.8498 19.8699 35.5084 19.4488 35.5084C19.0278 35.5084 18.6864 35.8498 18.6864 36.2709C18.6864 36.3651 18.61 36.441 18.5162 36.441C18.422 36.441 18.3457 36.3651 18.3457 36.2709C18.3457 35.8498 18.0047 35.5084 17.5833 35.5084C17.1622 35.5084 16.8208 35.8498 16.8208 36.2709C16.8219 37.2068 17.5803 37.9652 18.5162 37.9663Z" fill="#784F33"/>
<path d="M49.276 43.1351H47.3282V42.316C47.5188 42.1466 47.7712 41.9635 47.9652 41.7643C49.1372 40.5789 49.798 38.9818 49.8062 37.315V35.5831C50.0158 35.6296 50.2295 35.6527 50.4443 35.652C51.4059 35.6505 52.3177 35.2235 52.9342 34.4852C53.5507 33.7469 53.8087 32.7738 53.6389 31.827C53.4893 30.9708 53.0001 30.2109 52.2816 29.721C51.5634 29.231 50.6773 29.0527 49.8252 29.2262C49.3438 29.3193 48.8885 29.5158 48.4905 29.8025C46.8699 27.6812 44.0773 26.8294 41.5487 27.6856C39.0205 28.5415 37.3195 30.9149 37.3209 33.5843V37.315C37.3239 38.9799 37.9799 40.5778 39.1482 41.7643C39.4091 42.0253 39.6906 42.265 39.9895 42.4817V43.1351H38.051C36.866 43.1339 35.729 43.6015 34.8876 44.4355C33.7588 43.5915 32.3877 43.1354 30.9782 43.1351H28.9518C27.546 43.1306 26.1767 43.5796 25.0464 44.415C24.2077 43.5982 23.0844 43.1392 21.914 43.1351H19.975V42.3365C20.1657 42.1671 20.4181 41.9839 20.612 41.7848C21.784 40.5997 22.4452 39.0022 22.453 37.3355V32.556H22.9921C23.1935 32.5578 23.3871 32.4789 23.5305 32.3374C23.6734 32.196 23.7542 32.0031 23.7546 31.8017C23.7512 29.3215 21.739 27.313 19.2588 27.3141H15.4156C14.881 27.3174 14.3605 27.485 13.9245 27.7943C11.5419 28.7403 9.97488 31.0411 9.9678 33.6047V37.3355C9.97078 39.0004 10.6268 40.5983 11.795 41.7848C12.056 42.0457 12.3374 42.2859 12.6364 42.5025V43.1351H10.6886C8.2102 43.1351 6.15552 45.1663 6.15552 47.645V50.9447C6.17339 51.3739 6.52669 51.7131 6.95632 51.7127H22.3577V53.2026C22.3618 53.6334 22.704 53.9848 23.1343 54.0001H36.7863C37.2074 54.0001 37.5116 53.6237 37.5116 53.2026V51.7127H53.0086C53.4424 51.7034 53.7934 51.3575 53.8091 50.9242V47.6242C53.8091 45.1458 51.7548 43.1351 49.276 43.1351ZM51.8523 33.3866C51.5973 33.7626 51.2015 34.0195 50.7548 34.0991C50.435 34.1591 50.1051 34.1226 49.8062 33.9945V33.751L52.1319 32.0087C52.1386 32.0374 52.1386 32.0657 52.1438 32.0955C52.2227 32.5474 52.1177 33.0124 51.8523 33.3866ZM50.1174 30.7228C50.4636 30.6517 50.8229 30.6886 51.1475 30.8282L49.5698 32.0016C49.492 31.7049 49.3918 31.4142 49.2704 31.132C49.5132 30.9257 49.8047 30.7846 50.117 30.7228H50.1174ZM48.2161 33.0329C47.8606 32.6252 47.5944 32.1476 47.4347 31.6308C47.3595 31.3296 47.1089 31.1044 46.8014 31.0608C46.4939 31.0177 46.1908 31.1651 46.0352 31.4339C45.1108 33.0307 43.5524 33.932 41.4016 34.1129C40.5484 34.1784 39.6902 34.139 38.8466 33.9956V33.5843C38.8466 33.2857 38.8749 32.9875 38.9315 32.6941C39.3142 32.7499 39.7006 32.7779 40.0875 32.7779C40.4549 32.7782 40.822 32.7525 41.1857 32.7008C42.6116 32.4972 44.5647 31.7883 46.0836 29.6275C47.2675 30.387 48.0497 31.636 48.2157 33.0329H48.2161ZM43.5476 28.8818C43.9165 28.8822 44.2843 28.9257 44.6436 29.0121C42.9456 31.2019 40.7025 31.3486 39.4799 31.2302C40.3198 29.7783 41.8696 28.8833 43.5468 28.8818H43.5476ZM38.8459 37.315V35.5399C39.4304 35.6255 40.0201 35.6691 40.6109 35.6702C40.8894 35.6702 41.1805 35.6602 41.4798 35.6363C43.6105 35.4673 45.3524 34.6728 46.5616 33.3184C46.9812 34.0303 47.5724 34.6256 48.2813 35.05V37.315C48.2753 38.583 47.7727 39.7986 46.8811 40.7006C46.0144 41.6094 44.8133 42.1239 43.5572 42.1239C42.3015 42.1239 41.1005 41.6094 40.2338 40.7006C39.3455 39.7975 38.847 38.5815 38.8459 37.315ZM43.5498 43.6488C44.323 43.654 45.0892 43.5036 45.8033 43.2065V43.4686L43.5982 44.8528L41.5145 43.4791V43.2911C42.1671 43.5267 42.8558 43.6481 43.5498 43.6488ZM15.4156 28.839H19.2588C20.5983 28.8457 21.7706 29.7407 22.1306 31.0311H15.4156C14.8102 31.0311 14.3195 30.54 14.3195 29.935C14.3195 29.3297 14.8102 28.839 15.4156 28.839ZM12.8129 30.3352C12.9201 31.0836 13.3438 31.75 13.9763 32.1643C13.2913 32.7965 12.4205 33.1911 11.4938 33.2905C11.5716 32.1807 12.0389 31.1342 12.8129 30.3352ZM11.4927 37.3355V34.8188C12.5411 34.7473 14.2186 34.3668 15.6732 32.556H20.9281V37.3355C20.9207 38.6043 20.4162 39.8198 19.5231 40.7211C18.6568 41.6299 17.4557 42.1444 16.2 42.1444C14.9442 42.1444 13.7436 41.6299 12.8773 40.7211C11.9897 39.8176 11.4927 38.6016 11.4927 37.3355ZM16.1966 43.6693C16.9699 43.6745 17.7361 43.5241 18.4501 43.2274V43.4887L16.2454 44.8733L14.1613 43.4995V43.3115C14.8139 43.5472 15.5027 43.6686 16.1966 43.6693ZM7.68043 47.645C7.68043 46.0073 9.05084 44.66 10.6886 44.66H13.1409L15.4956 46.1901V50.1878H7.68043V47.645ZM17.0205 50.1878V46.2013L19.4378 44.66H21.914C22.6608 44.6637 23.3786 44.9496 23.924 45.4597C22.9162 46.6424 22.3611 48.1446 22.3577 49.6986V50.1878H17.0205ZM35.9866 52.4752H23.8826V49.7053C23.8942 46.9138 26.1614 44.6574 28.9529 44.66H30.9774C33.7644 44.66 35.9866 46.9347 35.9866 49.7232V52.4752ZM35.9803 45.4816C36.5399 44.9526 37.2811 44.6589 38.051 44.66H40.5033L42.8488 46.1696V50.1878H37.5116V49.7247C37.5205 48.1733 36.9777 46.6696 35.9803 45.4816ZM52.2842 50.1878H44.3737V46.1804L46.8003 44.66H49.276C50.9141 44.66 52.2842 45.9865 52.2842 47.6242V50.1878Z" fill="#784F33"/>
<path d="M42.9107 37.2649C42.9107 36.8438 42.5693 36.5024 42.1483 36.5024C41.7272 36.5024 41.3858 36.8438 41.3858 37.2649C41.3858 37.3591 41.3095 37.435 41.2153 37.435C41.1215 37.435 41.0452 37.3591 41.0452 37.2649C41.0452 36.8438 40.7038 36.5024 40.2827 36.5024C39.8617 36.5024 39.5203 36.8438 39.5203 37.2649C39.5203 38.2012 40.2794 38.96 41.2153 38.96C42.1516 38.96 42.9107 38.2012 42.9107 37.2649Z" fill="#784F33"/>
<path d="M45.8788 38.9608C46.8147 38.9597 47.5731 38.2013 47.5738 37.2658C47.5738 36.8443 47.2328 36.5033 46.8114 36.5033C46.3903 36.5033 46.0489 36.8443 46.0489 37.2658C46.0504 37.3272 46.0184 37.3849 45.9651 37.4165C45.9119 37.4478 45.846 37.4478 45.7928 37.4165C45.7395 37.3849 45.7071 37.3272 45.7086 37.2658C45.7086 36.8443 45.3672 36.5033 44.9462 36.5033C44.5251 36.5033 44.1837 36.8443 44.1837 37.2658C44.1848 38.2013 44.9432 38.9597 45.8788 38.9608Z" fill="#784F33"/>
<path d="M41.4752 20.9971C41.4746 20.9901 41.4744 20.9831 41.4737 20.9762C41.4721 20.9613 41.4693 20.9465 41.4667 20.9317C41.465 20.9214 41.4635 20.9112 41.4614 20.9012C41.4592 20.8913 41.4561 20.8815 41.4535 20.8717C41.4496 20.8569 41.4459 20.8421 41.4411 20.8277C41.4389 20.8214 41.4362 20.815 41.4339 20.8086C41.4275 20.7912 41.4209 20.7739 41.4133 20.7571C41.4127 20.7558 41.4124 20.7545 41.4117 20.7532L38.184 13.7425V13.0559H39.0591C39.4856 13.0559 39.8311 12.7222 39.8311 12.3106C39.8311 11.8989 39.4856 11.5652 39.0591 11.5652H30.7721V10.5482C31.7284 10.2363 32.4192 9.36258 32.4192 8.3354C32.4192 7.04765 31.3339 6 30 6C28.666 6 27.5808 7.04765 27.5808 8.3354C27.5808 9.36258 28.2716 10.2363 29.2279 10.5482V11.5652H20.9409C20.5144 11.5652 20.1688 11.8989 20.1688 12.3106C20.1688 12.7222 20.5144 13.0559 20.9409 13.0559H21.8159V13.7425L18.5882 20.7532C18.5876 20.7545 18.5872 20.7559 18.5867 20.7572C18.5791 20.774 18.5725 20.7912 18.5662 20.8085C18.5638 20.8149 18.5611 20.8213 18.5589 20.8277C18.5541 20.8421 18.5503 20.8568 18.5464 20.8717C18.5438 20.8815 18.5408 20.8913 18.5386 20.9012C18.5364 20.9112 18.5351 20.9215 18.5333 20.9317C18.5307 20.9465 18.5279 20.9613 18.5263 20.9762C18.5255 20.9831 18.5253 20.9901 18.5248 20.9971C18.5233 21.0153 18.522 21.0334 18.5219 21.0516C18.5219 21.0531 18.5217 21.0545 18.5217 21.0559C18.5217 22.782 20.3459 24.1863 22.588 24.1863C24.8301 24.1863 26.6543 22.782 26.6543 21.0559C26.6543 21.0544 26.6541 21.053 26.6541 21.0516C26.654 21.0334 26.6528 21.0154 26.6512 20.9971C26.6507 20.9901 26.6505 20.9831 26.6498 20.9762C26.6481 20.9613 26.6454 20.9465 26.6428 20.9317C26.641 20.9214 26.6396 20.9112 26.6374 20.9012C26.6353 20.8913 26.6322 20.8815 26.6296 20.8717C26.6257 20.8569 26.622 20.8421 26.6171 20.8277C26.615 20.8214 26.6123 20.815 26.6099 20.8086C26.6036 20.7912 26.597 20.7739 26.5894 20.7571C26.5887 20.7558 26.5884 20.7545 26.5878 20.7532L23.3601 13.7425V13.0559H29.2279V19.6382C28.2716 19.95 27.5808 20.8238 27.5808 21.8509V27.4658H25.8822C25.4557 27.4658 25.1101 27.7996 25.1101 28.2112C25.1101 28.6228 25.4557 28.9565 25.8822 28.9565H34.1178C34.5442 28.9565 34.8898 28.6228 34.8898 28.2112C34.8898 27.7996 34.5442 27.4658 34.1178 27.4658H32.4192V21.8509C32.4192 20.8238 31.7284 19.95 30.7721 19.6382V13.0559H36.6399V13.7425L33.4122 20.7532C33.4116 20.7545 33.4111 20.7559 33.4106 20.7572C33.403 20.774 33.3964 20.7912 33.3901 20.8085C33.3878 20.8149 33.385 20.8213 33.3828 20.8277C33.378 20.8421 33.3743 20.8568 33.3704 20.8717C33.3677 20.8815 33.3647 20.8913 33.3626 20.9012C33.3604 20.9112 33.3591 20.9215 33.3572 20.9317C33.3546 20.9465 33.3518 20.9613 33.3502 20.9762C33.3495 20.9831 33.3493 20.9901 33.3488 20.9971C33.3472 21.0153 33.346 21.0334 33.3459 21.0516C33.3459 21.0531 33.3457 21.0545 33.3457 21.0559C33.3457 22.782 35.1698 24.1863 37.412 24.1863C39.6541 24.1863 41.4783 22.782 41.4783 21.0559C41.4783 21.0544 41.478 21.053 41.478 21.0516C41.4779 21.0334 41.4767 21.0153 41.4752 20.9971ZM30 7.49068C30.4825 7.49068 30.875 7.86961 30.875 8.3354C30.875 8.80119 30.4825 9.18012 30 9.18012C29.5175 9.18012 29.125 8.80119 29.125 8.3354C29.125 7.86961 29.5175 7.49068 30 7.49068ZM22.588 15.7359L24.6942 20.3106H20.4818L22.588 15.7359ZM22.588 22.6957C21.6304 22.6957 20.777 22.3274 20.3516 21.8012H24.8244C24.399 22.3274 23.5456 22.6957 22.588 22.6957ZM30.875 27.4658H29.125V21.8509C29.125 21.3851 29.5175 21.0062 30 21.0062C30.4825 21.0062 30.875 21.3851 30.875 21.8509V27.4658ZM37.412 15.7359L39.5181 20.3106H35.3057L37.412 15.7359ZM37.412 22.6957C36.4544 22.6957 35.601 22.3274 35.1755 21.8012H39.6483C39.223 22.3274 38.3695 22.6957 37.412 22.6957Z" fill="#784F33"/>
</g>
</g>
</g>
<defs>
<clipPath id="clip0_21_1088">
<rect width="48" height="48" fill="white" transform="translate(6 6)"/>
</clipPath>
<clipPath id="clip1_21_1088">
<rect width="48" height="48" fill="white" transform="translate(6 6)"/>
</clipPath>
<clipPath id="clip2_21_1088">
<rect width="48" height="48" fill="white" transform="translate(6 6)"/>
</clipPath>
</defs>
</svg>
