<svg width="61" height="60" viewBox="0 0 61 60" fill="none" xmlns="http://www.w3.org/2000/svg">
<g clip-path="url(#clip0_31_299)">
<g clip-path="url(#clip1_31_299)">
<path d="M10.9466 38.9037H13.5477C13.9702 38.9037 14.3128 38.5611 14.3128 38.1386C14.3128 37.7161 13.9702 37.3735 13.5477 37.3735H10.9466C10.5241 37.3735 10.1815 37.7161 10.1815 38.1386C10.1815 38.5611 10.5241 38.9037 10.9466 38.9037Z" fill="#784F33"/>
<path d="M13.5477 41.9637H10.9466C10.5241 41.9637 10.1815 42.3063 10.1815 42.7288C10.1815 43.1513 10.5241 43.4939 10.9466 43.4939H13.5477C13.9702 43.4939 14.3128 43.1513 14.3128 42.7288C14.3128 42.3063 13.9702 41.9637 13.5477 41.9637Z" fill="#784F33"/>
<path d="M13.5477 46.6498H10.9466C10.5241 46.6498 10.1815 46.9923 10.1815 47.4148C10.1815 47.8373 10.5241 48.1799 10.9466 48.1799H13.5477C13.9702 48.1799 14.3128 47.8373 14.3128 47.4148C14.3128 46.9923 13.9702 46.6498 13.5477 46.6498Z" fill="#784F33"/>
<path d="M21.5145 28.2312C21.937 28.2312 22.2795 27.8887 22.2795 27.4662V24.4933C22.2795 24.0708 21.937 23.7283 21.5145 23.7283C21.0919 23.7283 20.7494 24.0708 20.7494 24.4933V27.4662C20.7494 27.8887 21.0919 28.2312 21.5145 28.2312Z" fill="#784F33"/>
<path d="M26.2005 28.2312C26.623 28.2312 26.9656 27.8887 26.9656 27.4662V24.4933C26.9656 24.0708 26.623 23.7283 26.2005 23.7283C25.778 23.7283 25.4354 24.0708 25.4354 24.4933V27.4662C25.4354 27.8887 25.778 28.2312 26.2005 28.2312Z" fill="#784F33"/>
<path d="M21.5145 37.521C21.937 37.521 22.2795 37.1785 22.2795 36.756V33.7831C22.2795 33.3606 21.937 33.0181 21.5145 33.0181C21.0919 33.0181 20.7494 33.3606 20.7494 33.7831V36.756C20.7494 37.1785 21.0919 37.521 21.5145 37.521Z" fill="#784F33"/>
<path d="M26.2005 37.521C26.623 37.521 26.9656 37.1785 26.9656 36.756V33.7831C26.9656 33.3606 26.623 33.0181 26.2005 33.0181C25.778 33.0181 25.4354 33.3606 25.4354 33.7831V36.756C25.4354 37.1785 25.778 37.521 26.2005 37.521Z" fill="#784F33"/>
<path d="M30.7907 37.521C31.2132 37.521 31.5558 37.1785 31.5558 36.756V33.7831C31.5558 33.3606 31.2132 33.0181 30.7907 33.0181C30.3682 33.0181 30.0256 33.3606 30.0256 33.7831V36.756C30.0256 37.1785 30.3682 37.521 30.7907 37.521Z" fill="#784F33"/>
<path d="M21.5145 46.8112C21.937 46.8112 22.2795 46.4686 22.2795 46.0461V43.0733C22.2795 42.6508 21.937 42.3082 21.5145 42.3082C21.0919 42.3082 20.7494 42.6508 20.7494 43.0733V46.0461C20.7494 46.4686 21.0919 46.8112 21.5145 46.8112Z" fill="#784F33"/>
<path d="M26.2005 46.8112C26.623 46.8112 26.9656 46.4686 26.9656 46.0461V43.0733C26.9656 42.6508 26.623 42.3082 26.2005 42.3082C25.778 42.3082 25.4354 42.6508 25.4354 43.0733V46.0461C25.4354 46.4686 25.778 46.8112 26.2005 46.8112Z" fill="#784F33"/>
<path d="M30.7907 46.8112C31.2132 46.8112 31.5558 46.4686 31.5558 46.0461V43.0733C31.5558 42.6508 31.2132 42.3082 30.7907 42.3082C30.3682 42.3082 30.0256 42.6508 30.0256 43.0733V46.0461C30.0256 46.4686 30.3682 46.8112 30.7907 46.8112Z" fill="#784F33"/>
<path d="M41.7656 6.08813C35.3257 6.08888 29.9 10.8974 29.1256 17.2906H27.2522V10.4708C27.2522 10.0483 26.9096 9.70574 26.4871 9.70574C26.0646 9.70574 25.7221 10.0483 25.7221 10.4708V17.2906H18.9445C17.4584 17.3044 16.2596 18.5099 16.2544 19.996V32.8788H9.18992C7.71322 32.8788 6.49988 34.0338 6.49988 35.5102V53.1529C6.50548 53.578 6.85215 53.9191 7.27727 53.918H45.6914C46.1176 53.9195 46.4658 53.5791 46.4744 53.1529V33.002C46.471 32.2295 46.1348 31.4962 45.5517 30.9896C50.8716 29.3254 54.4952 24.3996 54.5001 18.8252C54.5001 11.8056 48.7849 6.08813 41.7656 6.08813ZM18.9445 18.8207H29.0356C29.0251 20.6344 29.4077 22.429 30.1567 24.0805C30.0771 24.2038 30.0319 24.3461 30.0255 24.493V27.4662C30.0255 27.8887 30.3681 28.2312 30.7906 28.2312C31.2131 28.2312 31.5557 27.8887 31.5557 27.4662V26.4758C32.4164 27.5181 33.2771 28.4371 34.4246 29.1962V52.3878H17.7845V19.996C17.7887 19.3546 18.3031 18.8334 18.9445 18.8207ZM8.03 35.5102C8.03 34.8777 8.5571 34.4089 9.18992 34.4089H16.2544V52.3878H8.03V35.5102ZM44.9442 52.3878H35.9548V47.8931H40.8686C41.2912 47.8931 41.6337 47.5505 41.6337 47.128C41.6337 46.7055 41.2912 46.363 40.8686 46.363H35.9548V43.2071H40.8686C41.2912 43.2071 41.6337 42.8645 41.6337 42.442C41.6337 42.0195 41.2912 41.677 40.8686 41.677H35.9548V38.6167H40.8686C41.2912 38.6167 41.6337 38.2742 41.6337 37.8517C41.6337 37.4292 41.2912 37.0866 40.8686 37.0866H35.9548V30.1342C37.1024 30.7636 38.4681 31.191 39.866 31.4036C39.9848 31.6658 40.2478 31.832 40.5354 31.8272H43.7787C44.4209 31.8395 44.9371 32.3599 44.9442 33.002V52.3878ZM41.7656 30.0318C35.5797 30.0318 30.5653 25.0174 30.5653 18.8319C30.5653 12.6465 35.5797 7.63171 41.7652 7.63171C47.9507 7.63171 52.9651 12.6461 52.9651 18.8319C52.9583 25.0145 47.9481 30.0247 41.7656 30.0318Z" fill="#784F33"/>
<path d="M51.4973 21.4123C51.4969 21.4066 51.4967 21.4007 51.4961 21.3951C51.4948 21.3827 51.4925 21.3705 51.4903 21.3582C51.4889 21.3498 51.4877 21.3413 51.4859 21.333C51.4841 21.3248 51.4816 21.3167 51.4794 21.3085C51.4762 21.2964 51.4731 21.2841 51.4691 21.2722C51.4673 21.2669 51.4651 21.2617 51.4632 21.2564C51.4579 21.2419 51.4524 21.2276 51.4461 21.2137C51.4456 21.2126 51.4453 21.2116 51.4448 21.2105L48.7734 15.4081V14.8398H49.4976C49.8506 14.8398 50.1366 14.5636 50.1366 14.2229C50.1366 13.8823 49.8506 13.6061 49.4976 13.6061H42.6389V12.7643C43.4304 12.5062 44.0021 11.783 44.0021 10.9329C44.0021 9.86709 43.1039 9 41.9999 9C40.8958 9 39.9976 9.86709 39.9976 10.9329C39.9976 11.783 40.5693 12.5062 41.3609 12.7643V13.6061H34.5021C34.1491 13.6061 33.8631 13.8823 33.8631 14.2229C33.8631 14.5636 34.1491 14.8398 34.5021 14.8398H35.2263V15.4081L32.5549 21.2105C32.5544 21.2116 32.5541 21.2127 32.5536 21.2138C32.5473 21.2277 32.5419 21.2419 32.5367 21.2563C32.5347 21.2616 32.5324 21.2668 32.5306 21.2722C32.5266 21.2841 32.5236 21.2963 32.5203 21.3085C32.5181 21.3167 32.5156 21.3248 32.5139 21.333C32.5121 21.3413 32.511 21.3498 32.5094 21.3582C32.5073 21.3705 32.505 21.3827 32.5036 21.3951C32.503 21.4007 32.5029 21.4066 32.5024 21.4123C32.5012 21.4274 32.5001 21.4424 32.5 21.4575C32.5 21.4587 32.4999 21.4599 32.4999 21.461C32.4999 22.8897 34.0097 24.0519 35.8653 24.0519C37.721 24.0519 39.2308 22.8897 39.2308 21.461C39.2308 21.4598 39.2306 21.4587 39.2306 21.4575C39.2306 21.4424 39.2295 21.4275 39.2283 21.4123C39.2278 21.4066 39.2277 21.4007 39.2271 21.3951C39.2257 21.3827 39.2234 21.3705 39.2213 21.3582C39.2198 21.3498 39.2186 21.3413 39.2168 21.333C39.2151 21.3248 39.2125 21.3167 39.2104 21.3085C39.2071 21.2964 39.2041 21.2841 39.2001 21.2722C39.1983 21.2669 39.1961 21.2617 39.1941 21.2564C39.1888 21.2419 39.1834 21.2276 39.1771 21.2137C39.1765 21.2126 39.1763 21.2116 39.1758 21.2105L36.5044 15.4081V14.8398H41.3609V20.2876C40.5693 20.5457 39.9976 21.2689 39.9976 22.119V26.7662H38.5918C38.2388 26.7662 37.9528 27.0424 37.9528 27.3831C37.9528 27.7238 38.2388 28 38.5918 28H45.4079C45.7609 28 46.047 27.7238 46.047 27.3831C46.047 27.0424 45.7609 26.7662 45.4079 26.7662H44.0021V22.119C44.0021 21.2689 43.4304 20.5457 42.6389 20.2876V14.8398H47.4954V15.4081L44.824 21.2105C44.8235 21.2116 44.8231 21.2127 44.8227 21.2138C44.8164 21.2277 44.8109 21.2419 44.8057 21.2563C44.8038 21.2616 44.8015 21.2668 44.7997 21.2722C44.7957 21.2841 44.7926 21.2963 44.7894 21.3085C44.7872 21.3167 44.7847 21.3248 44.7829 21.333C44.7811 21.3413 44.78 21.3498 44.7785 21.3582C44.7763 21.3705 44.774 21.3827 44.7727 21.3951C44.7721 21.4007 44.7719 21.4066 44.7715 21.4123C44.7702 21.4274 44.7692 21.4424 44.7691 21.4575C44.7691 21.4587 44.7689 21.4599 44.7689 21.461C44.7689 22.8897 46.2787 24.0519 48.1344 24.0519C49.9901 24.0519 51.4999 22.8897 51.4999 21.461C51.4999 21.4598 51.4997 21.4587 51.4997 21.4575C51.4996 21.4424 51.4986 21.4274 51.4973 21.4123ZM41.9999 10.2338C42.3992 10.2338 42.7241 10.5474 42.7241 10.9329C42.7241 11.3184 42.3992 11.632 41.9999 11.632C41.6005 11.632 41.2757 11.3184 41.2757 10.9329C41.2757 10.5474 41.6005 10.2338 41.9999 10.2338ZM35.8653 17.0579L37.6085 20.8442H34.1221L35.8653 17.0579ZM35.8653 22.8182C35.0728 22.8182 34.3665 22.5134 34.0143 22.0779H37.7163C37.3642 22.5134 36.6579 22.8182 35.8653 22.8182ZM42.7241 26.7662H41.2757V22.119C41.2757 21.7335 41.6005 21.4199 41.9999 21.4199C42.3992 21.4199 42.7241 21.7335 42.7241 22.119V26.7662ZM48.1344 17.0579L49.8776 20.8442H46.3912L48.1344 17.0579ZM48.1344 22.8182C47.3419 22.8182 46.6355 22.5134 46.2834 22.0779H49.9853C49.6333 22.5134 48.927 22.8182 48.1344 22.8182Z" fill="#784F33"/>
</g>
</g>
<defs>
<clipPath id="clip0_31_299">
<rect width="48.0002" height="48" fill="white" transform="translate(6.49988 6)"/>
</clipPath>
<clipPath id="clip1_31_299">
<rect width="48.0002" height="48" fill="white" transform="translate(6.49988 6)"/>
</clipPath>
</defs>
</svg>
