<svg width="60" height="60" viewBox="0 0 60 60" fill="none" xmlns="http://www.w3.org/2000/svg">
<path fill-rule="evenodd" clip-rule="evenodd" d="M18.1965 6.05808C13.4864 6.4237 10.1418 7.61001 8.53761 9.48418C7.75351 10.4003 7.66007 9.30341 9.42221 19.8735L10.983 29.2354L10.9831 32.311L10.9832 35.3867L9.41592 42.4385L7.84879 49.4903L8.03585 49.8377C8.7117 51.0927 10.5181 52.2989 12.8314 53.0399C16.8693 54.3332 23.7135 54.3181 28.2755 53.0056C30.8126 52.2756 33.8457 50.5523 34.1584 49.6631C34.2218 49.4832 33.8529 47.6688 32.6826 42.405L31.1225 35.3867L31.1227 32.311L31.1228 29.2354L32.6822 19.8813C33.9103 12.5153 34.2199 10.4796 34.1396 10.303C33.7286 9.4013 30.7437 7.73018 28.2755 7.02005C25.6876 6.27555 21.0714 5.83499 18.1965 6.05808ZM24.4374 7.78992C26.8706 8.12852 28.7597 8.67317 30.5177 9.54286C31.1168 9.83925 31.607 10.116 31.607 10.1578C31.607 10.1997 31.4001 10.2636 31.147 10.3C29.6784 10.511 28.3401 10.6535 27.3058 10.7087L26.1316 10.7716L25.8647 10.3683C24.2814 7.97563 18.8883 7.41597 13.3693 9.07151C12.8978 9.21297 12.4925 9.37952 12.4688 9.44158C12.4338 9.5325 12.8501 11.3699 13.0787 12.1337C13.1235 12.2836 13.0952 12.3016 12.9049 12.2448C12.0589 11.9919 9.72422 10.6833 9.72422 10.4619C9.72422 10.3492 10.4461 9.76895 11.0417 9.40275C12.5038 8.50391 15.0126 7.84898 17.906 7.61069C18.9994 7.52055 23.3628 7.64032 24.4374 7.78992ZM41.9092 8.4647C37.8218 9.09969 35.818 11.3992 35.8302 15.4405C35.8372 17.7725 36.2536 19.2175 37.9854 22.9202C39.2407 25.604 39.6436 26.9509 39.6436 28.4636C39.6436 30.5499 38.787 32.4555 37.3993 33.4567L37.1401 33.6438L38.7791 37.3213L40.4182 40.9987V42.09V43.1812H37.6501H34.882L34.939 43.5443C34.9703 43.7441 35.1702 45.3235 35.3832 47.0543C35.5962 48.785 35.7961 50.3646 35.8274 50.5642L35.8844 50.9273H43.5166H51.1489L51.2058 50.5642C51.2372 50.3646 51.437 48.785 51.65 47.0543C51.863 45.3235 52.0629 43.7441 52.0943 43.5443L52.1512 43.1812H49.3831H46.6151V42.09V40.9987L48.2567 37.3213L49.8984 33.6438L49.6365 33.4504C48.2097 32.3968 47.3897 30.5721 47.3897 28.451C47.3897 26.9174 47.7738 25.6636 49.1691 22.6423C50.8396 19.0251 51.1952 17.7554 51.2 15.392C51.2033 13.7686 51.0613 13.0416 50.5197 11.909C49.289 9.33546 45.6568 7.88258 41.9092 8.4647ZM20.9586 9.68249C22.2209 9.83644 24.0545 10.4732 24.0545 10.7576C24.0545 10.9168 18.9623 10.7776 18.1723 10.5969C17.9552 10.5472 17.9545 10.5514 17.9545 11.7737V13.0004L16.6715 12.9413C14.744 12.8525 14.8683 12.9315 14.5328 11.5817C14.3776 10.9571 14.2702 10.4265 14.2942 10.4025C14.3947 10.302 16.6115 9.85416 17.6053 9.73361C18.9582 9.56959 19.9131 9.55506 20.9586 9.68249ZM45.8709 10.1527C48.2812 10.7886 49.5372 12.3426 49.6833 14.8697C49.8085 17.0347 49.4155 18.4728 47.6633 22.26C45.5591 26.8084 45.3096 29.4535 46.7189 32.2753C46.928 32.6941 47.0992 33.0536 47.0992 33.0741C47.0992 33.0945 45.7702 33.1113 44.146 33.1113H41.1928V33.8859V34.6605H44.4365C46.2455 34.6605 47.6801 34.6983 47.6801 34.7459C47.6801 34.7929 47.4696 35.3049 47.2122 35.8836L46.7443 36.9359L43.5309 36.9615L40.3177 36.9869L39.9998 36.2837C39.825 35.8969 39.5361 35.2458 39.3578 34.837L39.0337 34.0936L39.4113 33.6618C40.9746 31.8736 41.5588 28.9952 40.9085 26.285C40.6365 25.1519 40.3014 24.2778 39.3475 22.2135C37.7084 18.6667 37.3171 17.327 37.3214 15.2766C37.3275 12.3533 38.8297 10.5736 41.7604 10.0178C42.8007 9.82046 44.8689 9.88834 45.8709 10.1527ZM43.5166 12.1659V12.932L44.195 13.0483C45.476 13.268 46.3469 13.8774 46.6496 14.7662C46.9692 15.7039 46.7828 17.2047 46.206 18.3385L46.0123 18.7191L46.2834 18.9194C46.4324 19.0297 46.7214 19.2209 46.9253 19.3442L47.2962 19.5686L47.6319 18.8601C49.4055 15.1165 47.8763 11.9403 44.0734 11.4688L43.5166 11.3999V12.1659ZM32.4724 11.7853C32.4691 11.8785 31.8465 15.6583 31.0889 20.185L29.7114 28.4152L27.9883 28.4416L26.2653 28.4682L25.732 27.9808C24.3364 26.7053 22.3832 26.0264 20.5472 26.1787C20.1359 26.2128 19.7328 26.2662 19.6515 26.2974C19.5198 26.3479 19.5037 25.5897 19.5037 19.3434V12.3327L23.062 12.3369C27.0859 12.3416 29.7052 12.1433 32.4058 11.6297C32.4458 11.622 32.4757 11.692 32.4724 11.7853ZM10.7418 12.9719C12.5574 13.8962 14.4632 14.3803 16.7199 14.4903L17.9545 14.5505V20.7098V26.8692L17.4273 27.1844C17.1373 27.3578 16.6617 27.7177 16.3704 27.9839L15.8405 28.4682L14.1176 28.4416L12.3946 28.4152L11.1134 20.7175C10.4088 16.4838 9.80904 12.9 9.78067 12.7535C9.71657 12.4229 9.6209 12.4012 10.7418 12.9719ZM22.3017 27.8378C26.3988 28.8037 27.8534 33.9493 24.8721 36.9305C22.3075 39.4952 17.9598 38.8507 16.2815 35.6569C14.1194 31.5424 17.7904 26.7745 22.3017 27.8378ZM20.1089 29.3878C18.1596 29.9127 16.9036 31.8094 17.2547 33.6977C18.0594 38.0248 24.0465 38.024 24.8513 33.6967C25.3414 31.0609 22.7249 28.6834 20.1089 29.3878ZM14.7256 30.1823C14.6947 30.2754 14.5746 30.6241 14.4587 30.9569L14.2479 31.562H13.3901H12.5322V30.7874V30.0128H13.657C14.685 30.0128 14.7769 30.0274 14.7256 30.1823ZM29.5736 30.7874V31.562H28.7157H27.8579L27.6471 30.9569C27.5312 30.6241 27.4111 30.2754 27.3802 30.1823C27.3289 30.0274 27.4208 30.0128 28.4488 30.0128H29.5736V30.7874ZM22.0798 31.0098C23.4885 31.7382 23.7954 33.6179 22.689 34.7401C21.0179 36.4351 18.1646 34.7393 18.8233 32.4427C19.1996 31.1304 20.8818 30.3903 22.0798 31.0098ZM14.1281 33.7575C14.1661 34.1129 14.2194 34.4615 14.2465 34.5321C14.2852 34.6329 14.1065 34.6605 13.414 34.6605H12.5322V33.8859V33.1113H13.2956H14.0588L14.1281 33.7575ZM29.5736 33.8859V34.6605H28.6918C27.9993 34.6605 27.8206 34.6329 27.8593 34.5321C27.8864 34.4615 27.9397 34.1129 27.9777 33.7575L28.047 33.1113H28.8102H29.5736V33.8859ZM15.1452 36.7549C15.5386 37.4521 16.708 38.6232 17.4015 39.0146L17.9389 39.3178L17.9968 40.015C18.041 40.5484 18.4553 48.0478 18.6558 51.944L18.6807 52.4281L18.0513 52.3988C14.9267 52.2531 11.9052 51.3536 10.2971 50.0902C9.35802 49.3523 9.29905 50.0406 10.9308 42.6914L12.3698 36.2097H13.6037H14.8375L15.1452 36.7549ZM31.1698 42.6667L32.6042 49.1236L32.2266 49.4418C30.1947 51.1542 25.3167 52.4765 21.0319 52.4765H20.2213L19.8737 46.207C19.6824 42.7588 19.5319 39.9325 19.539 39.9263C19.5462 39.9201 19.8782 39.9603 20.2767 40.0156C22.7725 40.362 25.7429 38.9167 26.9546 36.7665L27.2683 36.2097H28.5019H29.7354L31.1698 42.6667ZM45.9017 38.7587C45.8707 38.8824 45.7321 39.231 45.5937 39.5333L45.3421 40.0828H43.5166H41.6912L41.4395 39.5333C41.3011 39.231 41.1626 38.8824 41.1315 38.7587L41.0749 38.5335H43.5166H45.9583L45.9017 38.7587ZM45.0658 42.4066V43.1812H43.5166H41.9674V42.4066V41.632H43.5166H45.0658V42.4066ZM50.352 45.0935C50.321 45.2933 50.208 46.1756 50.1008 47.0543C49.9936 47.933 49.8806 48.8153 49.8496 49.015L49.7933 49.3781H43.5166H37.2399L37.1836 49.015C37.1526 48.8153 37.0396 47.933 36.9324 47.0543C36.8252 46.1756 36.7122 45.2933 36.6813 45.0935L36.6249 44.7304H43.5166H50.4083L50.352 45.0935Z" fill="#784F33"/>
</svg>
