<svg width="61" height="60" viewBox="0 0 61 60" fill="none" xmlns="http://www.w3.org/2000/svg">
<g clip-path="url(#clip0_21_1140)">
<g clip-path="url(#clip1_21_1140)">
<path d="M51.2343 15.1231H43.77C43.2841 15.1231 42.8888 14.7278 42.8888 14.2419C42.8888 11.9839 41.0517 10.1469 38.7937 10.1469H9.76566C7.96498 10.1469 6.5 11.6118 6.5 13.4125V46.5875C6.5 48.3881 7.96498 49.8531 9.76566 49.8531H51.2343C53.035 49.8531 54.5 48.3881 54.5 46.5875V18.3888C54.5 16.5881 53.035 15.1231 51.2343 15.1231ZM41.3337 14.2419C41.3337 14.5526 41.3928 14.8496 41.4993 15.1231H37.135C36.6491 15.1231 36.2538 14.7278 36.2538 14.2419C36.2538 13.2829 35.9215 12.4006 35.3673 11.7019H38.7937C40.1942 11.7019 41.3337 12.8414 41.3337 14.2419ZM30.5 15.1231C30.0141 15.1231 29.6188 14.7278 29.6188 14.2419C29.6188 13.2829 29.2865 12.4006 28.7323 11.7019H32.1587C33.5592 11.7019 34.6987 12.8414 34.6987 14.2419C34.6987 14.5526 34.7578 14.8496 34.8643 15.1231H30.5ZM22.4985 11.7019H25.5238C26.9243 11.7019 28.0637 12.8414 28.0637 14.2419C28.0637 14.5526 28.1228 14.8496 28.2293 15.1231H23.865C23.3791 15.1231 22.9838 14.7278 22.9838 14.2419V13.4125C22.9838 12.7857 22.8059 12.1998 22.4985 11.7019ZM52.9449 46.5875C52.9449 47.5307 52.1775 48.298 51.2343 48.298H9.76566C8.82245 48.298 8.05508 47.5307 8.05508 46.5875V13.4125C8.05508 12.4693 8.82245 11.7019 9.76566 11.7019H18.8888H19.7181C20.6613 11.7019 21.4287 12.4693 21.4287 13.4125V14.2419C21.4287 15.5853 22.5216 16.6782 23.865 16.6782H51.2343C52.1775 16.6782 52.9449 17.4455 52.9449 18.3888V46.5875Z" fill="#784F33"/>
<path d="M13.0831 23.3131H23.865C24.2944 23.3131 24.6425 22.965 24.6425 22.5356C24.6425 22.1062 24.2944 21.7581 23.865 21.7581H13.0831C12.6537 21.7581 12.3056 22.1062 12.3056 22.5356C12.3056 22.965 12.6537 23.3131 13.0831 23.3131Z" fill="#784F33"/>
<path d="M29.6706 30.0519H13.0831C12.6537 30.0519 12.3056 30.4 12.3056 30.8294C12.3056 31.2588 12.6537 31.607 13.0831 31.607H29.6706C30.1 31.607 30.4482 31.2588 30.4482 30.8294C30.4482 30.4 30.1 30.0519 29.6706 30.0519Z" fill="#784F33"/>
<path d="M29.6706 25.9049H13.0831C12.6537 25.9049 12.3056 26.253 12.3056 26.6824C12.3056 27.1119 12.6537 27.46 13.0831 27.46H29.6706C30.1 27.46 30.4482 27.1119 30.4482 26.6824C30.4482 26.253 30.1 25.9049 29.6706 25.9049Z" fill="#784F33"/>
<path d="M37.5496 27.5637C36.8923 27.5637 36.3574 28.0986 36.3574 28.7559C36.3574 29.4133 36.8923 29.9482 37.5496 29.9482C38.207 29.9482 38.7419 29.4133 38.7419 28.7559C38.7419 28.0986 38.207 27.5637 37.5496 27.5637Z" fill="#784F33"/>
<path d="M37.5497 24.2462C35.063 24.2462 33.04 26.2693 33.04 28.7559C33.04 31.2426 35.063 33.2657 37.5497 33.2657C40.0364 33.2657 42.0594 31.2426 42.0594 28.7559C42.0594 26.2693 40.0364 24.2462 37.5497 24.2462ZM37.5497 31.7106C35.9205 31.7106 34.5951 30.3851 34.5951 28.7559C34.5951 27.1267 35.9205 25.8013 37.5497 25.8013C39.1789 25.8013 40.5043 27.1267 40.5043 28.7559C40.5043 30.3851 39.1789 31.7106 37.5497 31.7106Z" fill="#784F33"/>
</g>
</g>
<defs>
<clipPath id="clip0_21_1140">
<rect width="48" height="48" fill="white" transform="translate(6.5 6)"/>
</clipPath>
<clipPath id="clip1_21_1140">
<rect width="48" height="48" fill="white" transform="translate(6.5 6)"/>
</clipPath>
</defs>
</svg>
