<svg width="60" height="60" viewBox="0 0 60 60" fill="none" xmlns="http://www.w3.org/2000/svg">
<g clip-path="url(#clip0_21_1148)">
<g clip-path="url(#clip1_21_1148)">
<g clip-path="url(#clip2_21_1148)">
<path d="M45.7581 7.65875H24.972V7.60691C24.972 6.72083 24.2511 6 23.3651 6H18.3888C17.5027 6 16.7819 6.72083 16.7819 7.60691V7.65875H14.2419C12.8986 7.65875 11.8057 8.75165 11.8057 10.095V51.5637C11.8057 52.9071 12.8986 54 14.2419 54H45.7581C47.1015 54 48.1944 52.9071 48.1944 51.5637V10.095C48.1944 8.75165 47.1015 7.65875 45.7581 7.65875ZM18.337 7.60691C18.337 7.5783 18.3603 7.55508 18.3888 7.55508H23.3651C23.3936 7.55508 23.4169 7.5783 23.4169 7.60691V17.1307L21.2247 16.0346C21.1153 15.9799 20.9961 15.9525 20.8769 15.9525C20.7578 15.9525 20.6386 15.9799 20.5292 16.0346L18.337 17.1307V7.60691ZM46.6394 51.5637C46.6394 52.0496 46.2441 52.4449 45.7581 52.4449H14.2419C13.756 52.4449 13.3607 52.0496 13.3607 51.5637V10.095C13.3607 9.60912 13.756 9.21382 14.2419 9.21382H16.7819V18.3888C16.7819 18.6582 16.9214 18.9085 17.1507 19.0502C17.3801 19.192 17.6663 19.2048 17.9073 19.0842L20.877 17.5993L23.8468 19.0842C23.9566 19.139 24.0757 19.1663 24.1945 19.1663C24.3367 19.1663 24.4784 19.1273 24.6033 19.0502C24.8325 18.9085 24.9721 18.6582 24.9721 18.3888V9.21382H45.7583C46.2442 9.21382 46.6395 9.60912 46.6395 10.095V51.5637H46.6394Z" fill="#784F33"/>
</g>
<path fill-rule="evenodd" clip-rule="evenodd" d="M41.8774 39.2925C42.5989 37.6758 43 35.8847 43 34C43 26.8203 37.1797 21 30 21C22.8203 21 17 26.8203 17 34C17 41.1797 22.8203 47 30 47C34.9709 47 39.2901 44.21 41.4773 40.1106C41.6771 39.8926 41.844 39.6304 41.9487 39.3162L41.8774 39.2925ZM19 34C19 33.7347 19.0094 33.4717 19.0279 33.2111C19.6203 34.179 20.5732 35 22 35C22.9825 35 23.9038 34.6643 24.5651 33.9085C25.2111 33.1702 25.5 32.1557 25.5 31C25.5 29.7979 25.6657 29.395 25.806 29.1996C25.9589 28.9866 26.161 28.8663 26.7217 28.5324C26.81 28.4798 26.9072 28.4219 27.0145 28.3575C28.4583 27.4912 29.3951 26.2734 29.8699 25.049C30.1297 24.3788 30.2626 23.671 30.2403 23.0026C32.785 23.0571 35.1168 23.9758 36.9543 25.4768C36.2686 25.6996 35.5603 25.9936 34.9364 26.3669C34.3128 26.7402 33.6963 27.2382 33.3035 27.8974C32.8868 28.5966 32.7549 29.4271 33.0513 30.3162C33.4856 31.619 34.208 32.6429 34.7268 33.3781C34.8685 33.5789 34.995 33.7582 35.0963 33.9158C35.358 34.3228 35.4492 34.5603 35.4652 34.7328C35.4764 34.8542 35.4619 35.0508 35.2 35.4C34.3388 36.5483 33.9982 37.6838 34.108 38.6907C34.2169 39.689 34.7724 40.5042 35.5528 40.8944C35.9658 41.1009 36.5158 41.2098 37.0349 41.2608C37.4105 41.2978 37.8211 41.3092 38.2381 41.2895C36.2228 43.5653 33.2789 45 30 45C29.7186 45 29.4397 44.9894 29.1636 44.9687C29.4376 44.4766 29.5972 43.9244 29.6671 43.3921C29.8377 42.0947 29.5444 40.614 28.8542 39.4801C27.7848 37.7231 26.0397 36.6127 23.8211 37.0161C22.7743 37.2065 21.7392 37.8188 20.9798 38.4839C20.7314 38.7015 20.4985 38.9367 20.2946 39.182C19.4685 37.6379 19 35.8737 19 34ZM21.5054 40.9891C22.8632 42.6375 24.6914 43.8838 26.7847 44.5226C27.2088 44.4033 27.5718 43.9866 27.6842 43.1315C27.7974 42.2701 27.5906 41.2508 27.1458 40.52C26.3991 39.2932 25.3969 38.7624 24.1789 38.9839C23.5955 39.0899 22.8807 39.4776 22.2976 39.9884C22.0135 40.2372 21.7937 40.487 21.6529 40.7009C21.5501 40.8571 21.5164 40.9524 21.5054 40.9891ZM20.5527 31.8281C20.2216 31.1166 20.0511 30.2075 20.0099 29.3895C21.5182 26.1268 24.5779 23.7281 28.2426 23.1396C28.2447 23.4713 28.1795 23.8762 28.0051 24.326C27.6882 25.1433 27.0417 26.0088 25.9855 26.6425C25.908 26.689 25.8268 26.7363 25.743 26.785C25.2203 27.0892 24.6 27.4503 24.1815 28.0329C23.6594 28.76 23.5 29.7021 23.5 31C23.5 31.8443 23.2889 32.3298 23.0599 32.5915C22.8462 32.8357 22.5175 33 22 33C21.4095 33 20.9339 32.6472 20.5527 31.8281ZM39.8642 38.8736C39.8221 38.9013 39.7707 38.9308 39.708 38.9616C39.4303 39.0978 39.0355 39.2022 38.5707 39.2568C38.1135 39.3106 37.6386 39.3106 37.2307 39.2704C36.7967 39.2277 36.5342 39.1491 36.4472 39.1056C36.3332 39.0486 36.1387 38.8638 36.0962 38.4739C36.0546 38.0926 36.1612 37.4517 36.8 36.6C37.2881 35.9492 37.5236 35.2708 37.4567 34.5484C37.3945 33.8772 37.0795 33.3022 36.7787 32.8342C36.6097 32.5714 36.4356 32.3235 36.2626 32.0771C35.7669 31.3712 35.2801 30.678 34.9487 29.6838C34.845 29.3729 34.8882 29.1451 35.0215 28.9213C35.1787 28.6576 35.4871 28.3682 35.9635 28.0831C36.7275 27.6258 37.7246 27.2967 38.5706 27.1041C40.0903 28.9905 41 31.389 41 34C41 35.7501 40.5913 37.4047 39.8642 38.8736Z" fill="#784F33"/>
</g>
</g>
<defs>
<clipPath id="clip0_21_1148">
<rect width="38" height="48" fill="white" transform="translate(11 6)"/>
</clipPath>
<clipPath id="clip1_21_1148">
<rect width="38" height="48" fill="white" transform="translate(11 6)"/>
</clipPath>
<clipPath id="clip2_21_1148">
<rect width="38" height="48" fill="white" transform="translate(11 6)"/>
</clipPath>
</defs>
</svg>
