<svg width="61" height="60" viewBox="0 0 61 60" fill="none" xmlns="http://www.w3.org/2000/svg">
<g clip-path="url(#clip0_31_322)">
<g clip-path="url(#clip1_31_322)">
<path d="M45.4287 6H22.2063C22.1974 6 22.1887 6.00104 22.1797 6.00135C22.1711 6.00166 22.1625 6.00207 22.1539 6.00259C22.1207 6.00477 22.0878 6.0085 22.0559 6.01483C22.0553 6.01493 22.0548 6.01493 22.0544 6.01503C22.0198 6.02187 21.9863 6.03152 21.9535 6.04282C21.9477 6.04479 21.942 6.04707 21.9362 6.04914C21.9052 6.06065 21.8751 6.07361 21.846 6.08885C21.8443 6.08978 21.8424 6.09051 21.8406 6.09144C21.8103 6.10761 21.7815 6.12617 21.7538 6.14607C21.7475 6.15053 21.7415 6.1552 21.7354 6.15986C21.7079 6.18091 21.6813 6.20299 21.6569 6.22735C21.6568 6.22746 21.6566 6.22756 21.6565 6.22766L13.3628 14.5214C13.3627 14.5215 13.3626 14.5216 13.3625 14.5217C13.3381 14.5462 13.3159 14.5727 13.295 14.6002C13.2903 14.6064 13.2856 14.6125 13.2811 14.6187C13.2612 14.6464 13.2427 14.6751 13.2266 14.7053C13.2255 14.7074 13.2246 14.7095 13.2235 14.7115C13.2086 14.7401 13.1958 14.7699 13.1844 14.8005C13.1821 14.8066 13.1798 14.8126 13.1776 14.8188C13.1664 14.8513 13.1569 14.8845 13.15 14.9188C13.1498 14.92 13.1497 14.9214 13.1494 14.9226C13.1434 14.9538 13.1398 14.9857 13.1375 15.0181C13.1369 15.0272 13.1365 15.0362 13.1362 15.0454C13.136 15.0541 13.135 15.0626 13.135 15.0713V51.5637C13.135 52.9071 14.2279 54 15.5713 54H45.4287C46.7721 54 47.865 52.9071 47.865 51.5637V8.43629C47.865 7.09291 46.7721 6 45.4287 6ZM21.4287 8.65462V13.4125C21.4287 13.8984 21.0334 14.2937 20.5475 14.2937H15.7896L21.4287 8.65462ZM46.31 51.5637C46.31 52.0496 45.9147 52.4449 45.4287 52.4449H15.5713C15.0854 52.4449 14.6901 52.0496 14.6901 51.5637V15.8488H20.5475C21.8909 15.8488 22.9838 14.7559 22.9838 13.4125V7.55508H45.4287C45.9147 7.55508 46.31 7.95038 46.31 8.43629V51.5637Z" fill="#784F33"/>
<path d="M20.5476 28.2894H40.4525C40.8819 28.2894 41.2301 27.9414 41.2301 27.5119C41.2301 27.0824 40.8819 26.7344 40.4525 26.7344H20.5476C20.1181 26.7344 19.77 27.0824 19.77 27.5119C19.77 27.9414 20.1181 28.2894 20.5476 28.2894Z" fill="#784F33"/>
<path d="M20.5476 32.4363H40.4525C40.8819 32.4363 41.2301 32.0883 41.2301 31.6588C41.2301 31.2293 40.8819 30.8812 40.4525 30.8812H20.5476C20.1181 30.8812 19.77 31.2293 19.77 31.6588C19.77 32.0883 20.1181 32.4363 20.5476 32.4363Z" fill="#784F33"/>
<path d="M20.5476 36.5832H30.5C30.9295 36.5832 31.2776 36.2351 31.2776 35.8056C31.2776 35.3761 30.9295 35.0281 30.5 35.0281H20.5476C20.1181 35.0281 19.77 35.3761 19.77 35.8056C19.77 36.2351 20.1181 36.5832 20.5476 36.5832Z" fill="#784F33"/>
<path d="M31.2776 39.9525C31.2776 39.523 30.9295 39.1749 30.5 39.1749H20.5476C20.1181 39.1749 19.77 39.523 19.77 39.9525C19.77 40.382 20.1181 40.73 20.5476 40.73H30.5C30.9295 40.73 31.2776 40.382 31.2776 39.9525Z" fill="#784F33"/>
<path d="M41.9828 39.2256C41.6089 39.0144 41.1346 39.1462 40.9234 39.5201L39.3246 42.35L39.1055 42.1815C38.9209 42.0393 38.6822 41.9873 38.4554 42.0401C38.2284 42.0928 38.0371 42.2444 37.9339 42.4532L37.1262 44.0886L36.8666 43.791C36.4857 43.3543 35.9192 43.159 35.3499 43.2697C34.781 43.3799 34.3279 43.7726 34.1378 44.3199L33.2457 46.8874L31.1231 44.2064C30.9911 44.0397 30.7966 43.9342 30.5848 43.9147C30.3736 43.896 30.1627 43.9633 30.0024 44.103L27.7488 46.0686C27.4251 46.3509 27.3916 46.8421 27.6738 47.1657C27.9562 47.4893 28.4472 47.5226 28.7709 47.2406L30.4099 45.811L32.4367 48.3711C32.6651 48.6594 33.0106 48.8232 33.3712 48.8232C33.4374 48.8232 33.504 48.8176 33.5705 48.8064C33.9996 48.7337 34.3549 48.4332 34.4976 48.0222L35.6066 44.8305C35.6105 44.8192 35.6164 44.8023 35.6458 44.7965C35.6748 44.7908 35.6868 44.8042 35.6946 44.8133L36.7207 45.9899C36.8916 46.1859 37.1493 46.2835 37.407 46.2499C37.6648 46.2165 37.8888 46.0563 38.0039 45.8232L38.9081 43.9925L39.0859 44.1293C39.2645 44.2669 39.494 44.3197 39.7149 44.2753C39.9358 44.2304 40.1264 44.0919 40.2373 43.8958L42.2771 40.2853C42.4885 39.9113 42.3567 39.4369 41.9828 39.2256Z" fill="#784F33"/>
<path d="M31.816 23V22.04L33.128 21.88V20.344H31.304V19.384H33.128V18.088H31.304V17.128H33.128V12.312L31.88 12.104V11.112H34.2C34.5626 11.112 34.9306 11.096 35.304 11.064C35.688 11.032 36.1893 11.016 36.808 11.016C37.9173 11.016 38.776 11.1493 39.384 11.416C40.0026 11.672 40.4346 12.0453 40.68 12.536C40.936 13.016 41.064 13.5867 41.064 14.248C41.064 15.0587 40.872 15.7573 40.488 16.344C40.1146 16.92 39.5866 17.3627 38.904 17.672C38.232 17.9813 37.4373 18.136 36.52 18.136C36.3066 18.136 36.0826 18.136 35.848 18.136C35.6133 18.1253 35.464 18.1147 35.4 18.104V19.384H38.344V20.344H35.4V21.88L37.384 22.04V23H31.816ZM36.472 17.128C36.888 17.128 37.2666 17.048 37.608 16.888C37.9493 16.7173 38.2213 16.424 38.424 16.008C38.6266 15.592 38.728 15.016 38.728 14.28C38.728 13.4907 38.5573 12.9147 38.216 12.552C37.8746 12.1787 37.3253 11.992 36.568 11.992C36.3013 11.992 36.072 12.008 35.88 12.04C35.6986 12.0613 35.5386 12.0773 35.4 12.088V17.096C35.496 17.1173 35.6346 17.128 35.816 17.128C36.008 17.128 36.2266 17.128 36.472 17.128Z" fill="#784F33"/>
</g>
</g>
<defs>
<clipPath id="clip0_31_322">
<rect width="48" height="48" fill="white" transform="translate(6.5 6)"/>
</clipPath>
<clipPath id="clip1_31_322">
<rect width="48" height="48" fill="white" transform="translate(6.5 6)"/>
</clipPath>
</defs>
</svg>
