<svg width="60" height="60" viewBox="0 0 60 60" fill="none" xmlns="http://www.w3.org/2000/svg">
<g clip-path="url(#clip0_31_556)">
<g clip-path="url(#clip1_31_556)">
<g clip-path="url(#clip2_31_556)">
<path d="M9.31711 42.3031C9.31711 46.3904 12.6424 49.7157 16.7297 49.7157C20.817 49.7157 24.1423 46.3904 24.1423 42.3031C24.1423 38.2158 20.817 34.8905 16.7297 34.8905C12.6424 34.8905 9.31711 38.2159 9.31711 42.3031ZM22.5872 42.3031C22.5872 45.5329 19.9595 48.1606 16.7297 48.1606C13.4999 48.1606 10.8722 45.5329 10.8722 42.3031C10.8722 39.0733 13.4999 36.4456 16.7297 36.4456C19.9595 36.4456 22.5872 39.0733 22.5872 42.3031Z" fill="#784F33"/>
<path d="M43.2699 34.8905C39.1826 34.8905 35.8573 38.2158 35.8573 42.3031C35.8573 46.3904 39.1826 49.7157 43.2699 49.7157C47.3572 49.7157 50.6825 46.3904 50.6825 42.3031C50.6825 38.2158 47.3572 34.8905 43.2699 34.8905ZM43.2699 48.1606C40.0401 48.1606 37.4124 45.5329 37.4124 42.3031C37.4124 39.0733 40.0401 36.4456 43.2699 36.4456C46.4997 36.4456 49.1274 39.0733 49.1274 42.3031C49.1274 45.5329 46.4997 48.1606 43.2699 48.1606Z" fill="#784F33"/>
<path d="M47.4156 32.4158C47.3903 32.4052 47.3648 32.384 47.3648 32.3638V29.8623C47.3648 28.7201 46.5745 27.7593 45.5121 27.4971C45.6369 27.2045 45.7061 26.8826 45.7061 26.5448V24.886C45.7061 24.048 45.2807 23.3075 44.6345 22.8689C44.6636 22.8303 44.6938 22.7928 44.7209 22.7524C45.0824 22.2112 45.2116 21.5618 45.0847 20.9235L44.761 19.2966C44.634 18.6584 44.2662 18.1077 43.7251 17.7462C43.5184 17.608 43.2957 17.5041 43.0639 17.4351C43.2776 16.8578 43.2688 16.2313 43.0319 15.6595L42.3972 14.127C42.1481 13.5258 41.6799 13.0575 41.0786 12.8085C40.7378 12.6673 40.3774 12.609 40.0196 12.628C40.0214 12.569 40.0218 12.5097 40.0193 12.4501C39.9922 11.8 39.7135 11.1992 39.2345 10.7587L38.0138 9.6357C37.5348 9.19499 36.9127 8.96826 36.2627 8.99448C36.0041 9.00527 35.7536 9.05648 35.5175 9.14367C35.28 8.47519 34.755 7.91494 34.0358 7.66011L32.4721 7.1064C31.5888 6.79372 30.6432 7.02336 29.9996 7.6203C29.356 7.02346 28.4104 6.79393 27.5272 7.1064L25.9635 7.66022C25.2442 7.91494 24.7192 8.47519 24.4817 9.14367C24.2457 9.05648 23.9952 9.00527 23.7365 8.99448C23.0861 8.96774 22.4644 9.19509 21.9855 9.6357L20.7647 10.7587C20.2858 11.1992 20.0071 11.8 19.9799 12.4501C19.9774 12.5097 19.9779 12.5689 19.9796 12.628C19.6218 12.6091 19.2615 12.6674 18.9206 12.8085C18.3194 13.0574 17.8511 13.5258 17.6021 14.127L16.9673 15.6595C16.7304 16.2313 16.7216 16.8577 16.9354 17.4351C16.7037 17.504 16.481 17.608 16.2741 17.7462C15.7331 18.1077 15.3651 18.6584 15.2383 19.2966L14.9146 20.9235C14.7876 21.5617 14.9168 22.2112 15.2784 22.7524C15.3054 22.7929 15.3356 22.8304 15.3647 22.8689C14.7186 23.3074 14.2932 24.048 14.2932 24.886V26.5448C14.2932 26.8826 14.3624 27.2045 14.4871 27.4971C13.4247 27.7593 12.6344 28.7201 12.6344 29.8623V32.3635C12.6344 32.3848 12.608 32.4056 12.5835 32.4159C8.40841 34.1678 5.76901 38.3822 6.01595 42.903C6.31401 48.3599 10.8268 52.8057 16.2898 53.0243C16.4387 53.0303 16.5868 53.0333 16.7348 53.0333C19.5217 53.0333 22.1449 51.9803 24.1628 50.0416C26.2889 47.9989 27.4598 45.2507 27.4598 42.303C27.4598 37.9749 24.8752 34.0939 20.8756 32.4158C20.8503 32.4052 20.8248 32.384 20.8248 32.3638V29.8623C20.8248 28.7201 20.0345 27.7593 18.972 27.4971C19.0968 27.2045 19.166 26.8826 19.166 26.5448V24.886C19.166 24.3339 18.981 23.8242 18.6702 23.4151C19.2042 23.0535 19.5678 22.5072 19.6938 21.8739L20.0174 20.2472C20.1066 19.7984 20.0687 19.3441 19.913 18.9258C20.5918 18.723 21.1776 18.2282 21.4692 17.5243L22.104 15.9918C22.2384 15.6673 22.2977 15.325 22.2871 14.9842C22.2957 14.9846 22.3042 14.9855 22.3128 14.9858C22.3475 14.9873 22.3821 14.988 22.4168 14.988C23.0289 14.9879 23.6104 14.7616 24.0637 14.3446L25.2844 13.2216C25.5825 12.9474 25.8029 12.6112 25.9335 12.2395C26.2018 12.3389 26.4877 12.3932 26.7793 12.3932C27.0485 12.3932 27.3223 12.3481 27.5902 12.2532L29.1539 11.6995C29.4783 11.5846 29.763 11.4073 29.9999 11.1862C30.2368 11.4073 30.5215 11.5846 30.8459 11.6995L32.4095 12.2533C32.6774 12.3482 32.9511 12.3932 33.2204 12.3932C33.512 12.3932 33.7978 12.339 34.0661 12.2395C34.1968 12.6111 34.4172 12.9474 34.7152 13.2216L35.936 14.3446C36.3893 14.7617 36.9706 14.988 37.5829 14.988C37.6174 14.988 37.6522 14.9872 37.6869 14.9858C37.6955 14.9855 37.704 14.9846 37.7126 14.9842C37.7019 15.325 37.7612 15.6673 37.8957 15.9918L38.5305 17.5243C38.8221 18.2283 39.4078 18.7231 40.0866 18.9259C39.9308 19.3442 39.8929 19.7984 39.9822 20.2472L40.3058 21.874C40.4317 22.5073 40.7953 23.0536 41.3293 23.4152C41.0185 23.8243 40.8336 24.3339 40.8336 24.8861V26.5449C40.8336 26.8827 40.9028 27.2046 41.0275 27.4972C39.9651 27.7594 39.1748 28.7202 39.1748 29.8624V32.3636C39.1748 32.3849 39.1484 32.4057 39.1239 32.416C34.9487 34.1678 32.3093 38.3823 32.5561 42.9031C32.8542 48.36 37.367 52.8058 42.83 53.0244C42.9789 53.0305 43.127 53.0334 43.275 53.0334C46.0619 53.0334 48.6851 51.9804 50.703 50.0417C52.8291 47.999 54 45.2508 54 42.3031C54 37.9749 51.4154 34.094 47.4156 32.4158ZM42.3887 26.5448V24.886C42.3887 24.4001 42.784 24.0048 43.2699 24.0048C43.7558 24.0048 44.1511 24.4001 44.1511 24.886V26.5448C44.1511 27.0307 43.7558 27.426 43.2699 27.426C42.784 27.426 42.3887 27.0307 42.3887 26.5448ZM43.5595 21.2268C43.6055 21.4578 43.5587 21.6926 43.428 21.8883C43.2972 22.0841 43.0981 22.2171 42.8671 22.263C42.6365 22.3087 42.4014 22.2622 42.2058 22.1314C42.01 22.0005 41.8769 21.8014 41.831 21.5706L41.5074 19.9437C41.4615 19.7129 41.5083 19.478 41.639 19.2822C41.7697 19.0865 41.9689 18.9535 42.1998 18.9076C42.1998 18.9076 42.1998 18.9076 42.1999 18.9076C42.2578 18.8961 42.3159 18.8903 42.3736 18.8903C42.546 18.8903 42.7147 18.9411 42.8613 19.0392C43.057 19.1699 43.19 19.3692 43.236 19.6L43.5595 21.2268ZM16.4399 21.2268L16.7636 19.6C16.8095 19.3691 16.9426 19.1699 17.1383 19.0392C17.2849 18.9412 17.4535 18.8903 17.6259 18.8903C17.6837 18.8903 17.7418 18.8961 17.7997 18.9076C18.0306 18.9535 18.2297 19.0866 18.3605 19.2822C18.4912 19.478 18.5379 19.7129 18.492 19.9438L18.1685 21.5706C18.1225 21.8015 17.9894 22.0005 17.7937 22.1314C17.5981 22.2622 17.3631 22.3086 17.1322 22.263C16.9014 22.2171 16.7022 22.084 16.5715 21.8883C16.4408 21.6927 16.394 21.4578 16.4399 21.2268ZM17.6109 26.5448C17.6109 27.0307 17.2156 27.426 16.7297 27.426C16.2438 27.426 15.8485 27.0307 15.8485 26.5448V24.886C15.8485 24.4001 16.2438 24.0048 16.7297 24.0048C17.2156 24.0048 17.6109 24.4001 17.6109 24.886V26.5448ZM19.2697 29.8623V32.3638C19.2697 33.0105 19.6638 33.5937 20.2738 33.8498C23.6945 35.2849 25.9047 38.6031 25.9047 42.303C25.9047 44.8234 24.9034 47.1735 23.0854 48.9202C21.2685 50.6658 18.8776 51.5698 16.352 51.4705C11.6817 51.2836 7.82359 47.483 7.56876 42.8182C7.35758 38.9521 9.61474 35.3481 13.1855 33.8498C13.7955 33.5937 14.1897 33.0102 14.1897 32.3635V29.8623C14.1897 29.3764 14.585 28.9811 15.0709 28.9811H18.3884C18.8744 28.9811 19.2697 29.3765 19.2697 29.8623ZM20.6672 15.3966L20.0324 16.9291C19.8465 17.3779 19.3301 17.5917 18.8811 17.4061C18.4322 17.2201 18.2182 16.7036 18.4042 16.2547L19.039 14.7222C19.1291 14.5047 19.2984 14.3354 19.5159 14.2452C19.6245 14.2001 19.7388 14.1777 19.853 14.1777C19.9673 14.1777 20.0815 14.2002 20.1903 14.2452C20.4078 14.3353 20.5771 14.5047 20.6672 14.7222C20.7573 14.9396 20.7573 15.1791 20.6672 15.3966ZM24.2316 12.0773L23.0109 13.2003C22.8378 13.3597 22.6126 13.4434 22.3776 13.4321C22.1423 13.4223 21.9251 13.3216 21.7657 13.1482C21.6063 12.9751 21.524 12.7501 21.5339 12.515C21.5436 12.2798 21.6445 12.0626 21.8177 11.9032L23.0385 10.7802C23.2025 10.6294 23.4127 10.5476 23.6342 10.5476C23.6467 10.5476 23.6593 10.5478 23.6718 10.5484C23.907 10.5582 24.1242 10.6589 24.2836 10.8322V10.8323C24.4429 11.0054 24.5252 11.2304 24.5154 11.4655C24.5058 11.7007 24.4049 11.9178 24.2316 12.0773ZM28.6347 10.2338L27.0711 10.7874C26.6129 10.9495 26.1084 10.7089 25.9462 10.2509C25.7839 9.79287 26.0247 9.28829 26.4827 9.12604L28.0464 8.57233C28.1433 8.53801 28.2423 8.52174 28.3397 8.52174C28.7026 8.52174 29.0434 8.74774 29.1712 9.10883V9.10894C29.3334 9.56696 29.0927 10.0715 28.6347 10.2338ZM32.9284 10.7875L31.3648 10.2338C30.9068 10.0715 30.6661 9.56686 30.8282 9.10883C30.9905 8.65081 31.4954 8.41019 31.9531 8.57233L33.5167 9.12594C33.9747 9.28819 34.2154 9.79287 34.0532 10.2509C33.8911 10.7089 33.3867 10.9495 32.9284 10.7875ZM37.622 13.4321C37.3881 13.4428 37.1619 13.3596 36.9887 13.2003L35.7678 12.0773C35.5946 11.9179 35.4937 11.7007 35.484 11.4655C35.4741 11.2303 35.5564 11.0054 35.7158 10.8323V10.8322C35.8751 10.6589 36.0924 10.5581 36.3275 10.5484C36.3401 10.5478 36.3526 10.5476 36.3652 10.5476C36.5866 10.5476 36.797 10.6294 36.9609 10.7802L38.1816 11.9032C38.3549 12.0626 38.4557 12.2799 38.4655 12.515C38.4753 12.7502 38.393 12.9751 38.2336 13.1483C38.0744 13.3215 37.8571 13.4223 37.622 13.4321ZM39.3324 15.3966C39.2423 15.1791 39.2423 14.9396 39.3324 14.7221C39.4225 14.5046 39.5918 14.3353 39.8093 14.2451C39.918 14.2 40.0323 14.1776 40.1465 14.1776C40.2608 14.1776 40.375 14.2001 40.4837 14.2451C40.7012 14.3352 40.8705 14.5046 40.9606 14.7221L41.5954 16.2546C41.7813 16.7035 41.5674 17.2201 41.1185 17.4059C40.6692 17.5921 40.153 17.3779 39.9671 16.929L39.3324 15.3966ZM49.6255 48.9202C47.8086 50.6658 45.4173 51.5698 42.8921 51.4705C38.2217 51.2836 34.3637 47.483 34.1088 42.8182C33.8977 38.9521 36.1548 35.3481 39.7256 33.8498C40.3356 33.5937 40.7298 33.0102 40.7298 32.3635V29.8623C40.7298 29.3764 41.1251 28.9811 41.611 28.9811H44.9285C45.4144 28.9811 45.8097 29.3764 45.8097 29.8623V32.3638C45.8097 33.0105 46.2039 33.5937 46.8139 33.8498C50.2346 35.2849 52.4448 38.6031 52.4448 42.303C52.4449 44.8234 51.4436 47.1735 49.6255 48.9202Z" fill="#784F33"/>
<path d="M16.7297 33.128C17.1591 33.128 17.5073 32.78 17.5073 32.3505V31.5211C17.5073 31.0916 17.1591 30.7435 16.7297 30.7435C16.3003 30.7435 15.9522 31.0916 15.9522 31.5211V32.3505C15.9522 32.78 16.3003 33.128 16.7297 33.128Z" fill="#784F33"/>
<path d="M43.2699 33.128C43.6993 33.128 44.0475 32.78 44.0475 32.3505V31.5211C44.0475 31.0916 43.6993 30.7435 43.2699 30.7435C42.8405 30.7435 42.4924 31.0916 42.4924 31.5211V32.3505C42.4924 32.78 42.8405 33.128 43.2699 33.128Z" fill="#784F33"/>
</g>
</g>
</g>
<defs>
<clipPath id="clip0_31_556">
<rect width="48" height="48" fill="white" transform="translate(6 6)"/>
</clipPath>
<clipPath id="clip1_31_556">
<rect width="48" height="48" fill="white" transform="translate(6 6)"/>
</clipPath>
<clipPath id="clip2_31_556">
<rect width="48" height="48" fill="white" transform="translate(6 6)"/>
</clipPath>
</defs>
</svg>
