<svg width="61" height="60" viewBox="0 0 61 60" fill="none" xmlns="http://www.w3.org/2000/svg">
<g clip-path="url(#clip0_31_566)">
<g clip-path="url(#clip1_31_566)">
<path d="M52.0637 44.9805H52.0119V15.0194H52.0637C53.4071 15.0194 54.5 13.9265 54.5 12.5831C54.5 11.2398 53.4071 10.1469 52.0637 10.1469H8.93629C7.59291 10.1469 6.5 11.2398 6.5 12.5831C6.5 13.9265 7.59291 15.0194 8.93629 15.0194H8.98812V44.9805H8.93629C7.59291 44.9805 6.5 46.0735 6.5 47.4168C6.5 48.7602 7.59291 49.8531 8.93629 49.8531H52.0637C53.4071 49.8531 54.5 48.7602 54.5 47.4168C54.5 46.0735 53.4071 44.9805 52.0637 44.9805ZM50.4568 44.9805H47.865V15.0194H50.4568V44.9805ZM39.5713 44.9805V38.6128L40.0451 38.8023C41.3317 39.317 42.1631 40.545 42.1631 41.9306V43.27C42.1631 43.271 42.1632 43.2719 42.1632 43.273V44.9805H39.5713ZM35.4244 44.9805V36.9541L38.0162 37.9908V44.9805H35.4244ZM31.2775 44.9805V35.7046C32.22 35.5894 33.0994 35.2685 33.8693 34.7872V35.8189C33.8693 35.8197 33.8693 35.8205 33.8693 35.8214V44.9805H31.2775ZM27.1307 44.9805V35.8213C27.1307 35.8204 27.1307 35.8196 27.1307 35.8188V34.7871C27.9006 35.2685 28.78 35.5893 29.7225 35.7045V44.9805H27.1307ZM22.9838 44.9805V37.9908L25.5756 36.9541V44.9805H22.9838ZM18.8369 44.9805V43.27V41.9306C18.8369 40.545 19.6683 39.317 20.9549 38.8023L21.4287 38.6128V44.9805H18.8369ZM14.9575 44.9805L16.6226 39.4303C16.8217 39.5761 17.0435 39.6923 17.2819 39.7727V41.9306V43.27V44.9805H14.9575ZM17.2819 15.0194V33.4972C16.3187 33.8226 15.6231 34.7341 15.6231 35.8056V37.3502L14.6901 40.4604V15.0194H17.2819ZM21.4287 15.0194V36.9379L20.4957 37.3111V35.8056C20.4957 34.7341 19.8 33.8226 18.8369 33.4972V15.0194H21.4287ZM25.5756 15.0194V21.0705C24.6887 21.8223 24.1242 22.9434 24.1242 24.1944V29.378C24.1242 30.9124 24.6692 32.3218 25.5756 33.4231V35.2792L22.9838 36.3159V15.0194H25.5756ZM29.7225 15.0194V20.0993H28.2192C27.8423 20.0993 27.4776 20.1516 27.1307 20.2474V15.0194H29.7225ZM33.8693 15.0194V20.2474C33.5224 20.1516 33.1577 20.0993 32.7808 20.0993H31.2775V15.0194H33.8693ZM38.0162 15.0194V36.3159L35.4244 35.2792V33.4231C36.3308 32.3217 36.8758 30.9123 36.8758 29.378V24.1944C36.8758 22.9434 36.3113 21.8223 35.4244 21.0705V15.0194H38.0162ZM42.1631 15.0194V33.4972C41.2 33.8226 40.5043 34.7341 40.5043 35.8056V37.3111L39.5713 36.9379V15.0194H42.1631ZM46.3099 15.0194V40.4604L45.3769 37.3502V35.8056C45.3769 34.7341 44.6813 33.8226 43.7181 33.4972V15.0194H46.3099ZM42.9406 38.3456C42.4547 38.3456 42.0594 37.9503 42.0594 37.4643V35.8056C42.0594 35.3197 42.4547 34.9244 42.9406 34.9244C43.4265 34.9244 43.8218 35.3197 43.8218 35.8056V37.4535C43.8218 37.4557 43.8218 37.458 43.8218 37.4604V37.4643C43.8218 37.9503 43.4265 38.3456 42.9406 38.3456ZM27.1307 21.9C27.4608 21.7427 27.8298 21.6544 28.2192 21.6544H29.7225V34.1351C28.7222 33.9722 27.8248 33.5006 27.1307 32.8213V21.9ZM31.2775 21.6544H32.7808C33.1702 21.6544 33.5392 21.7427 33.8693 21.9V32.8213C33.1752 33.5006 32.2778 33.9723 31.2775 34.1351V21.6544ZM17.1782 37.4604C17.1782 37.4581 17.1782 37.4558 17.1782 37.4535V35.8056C17.1782 35.3197 17.5735 34.9244 18.0594 34.9244C18.5453 34.9244 18.9406 35.3197 18.9406 35.8056V37.4643C18.9406 37.9503 18.5453 38.3456 18.0594 38.3456C17.5735 38.3456 17.1782 37.9503 17.1782 37.4643V37.4604ZM43.7182 39.7726C43.9565 39.6922 44.1783 39.576 44.3773 39.4303L46.0425 44.9805H43.7184V39.7726H43.7182ZM8.05508 12.5831C8.05508 12.0972 8.45038 11.7019 8.93629 11.7019H52.0637C52.5496 11.7019 52.9449 12.0972 52.9449 12.5831C52.9449 13.069 52.5496 13.4643 52.0637 13.4643H8.93629C8.45038 13.4643 8.05508 13.069 8.05508 12.5831ZM10.5432 15.0194H13.135V44.9805H10.5432V15.0194ZM52.0637 48.298H8.93629C8.45038 48.298 8.05508 47.9027 8.05508 47.4168C8.05508 46.9309 8.45038 46.5356 8.93629 46.5356H13.91C13.911 46.5356 13.9119 46.5358 13.9128 46.5358C13.9137 46.5358 13.9145 46.5356 13.9153 46.5356H47.0847C47.0855 46.5356 47.0863 46.5358 47.0872 46.5358C47.0881 46.5358 47.089 46.5356 47.09 46.5356H52.0637C52.5496 46.5356 52.9449 46.9309 52.9449 47.4168C52.9449 47.9027 52.5496 48.298 52.0637 48.298Z" fill="#784F33"/>
</g>
</g>
<defs>
<clipPath id="clip0_31_566">
<rect width="48" height="48" fill="white" transform="translate(6.5 6)"/>
</clipPath>
<clipPath id="clip1_31_566">
<rect width="48" height="48" fill="white" transform="translate(6.5 6)"/>
</clipPath>
</defs>
</svg>
