<svg width="60" height="60" viewBox="0 0 60 60" fill="none" xmlns="http://www.w3.org/2000/svg">
<g clip-path="url(#clip0_31_583)">
<g clip-path="url(#clip1_31_583)">
<g clip-path="url(#clip2_31_583)">
<path d="M45.7581 7.65875H24.972V7.60691C24.972 6.72083 24.2511 6 23.3651 6H18.3888C17.5027 6 16.7819 6.72083 16.7819 7.60691V7.65875H14.2419C12.8986 7.65875 11.8057 8.75165 11.8057 10.095V51.5637C11.8057 52.9071 12.8986 54 14.2419 54H45.7581C47.1015 54 48.1944 52.9071 48.1944 51.5637V10.095C48.1944 8.75165 47.1015 7.65875 45.7581 7.65875ZM18.337 7.60691C18.337 7.5783 18.3603 7.55508 18.3888 7.55508H23.3651C23.3936 7.55508 23.4169 7.5783 23.4169 7.60691V17.1307L21.2247 16.0346C21.1153 15.9799 20.9961 15.9525 20.8769 15.9525C20.7578 15.9525 20.6386 15.9799 20.5292 16.0346L18.337 17.1307V7.60691ZM46.6394 51.5637C46.6394 52.0496 46.2441 52.4449 45.7581 52.4449H14.2419C13.756 52.4449 13.3607 52.0496 13.3607 51.5637V10.095C13.3607 9.60912 13.756 9.21382 14.2419 9.21382H16.7819V18.3888C16.7819 18.6582 16.9214 18.9085 17.1507 19.0502C17.3801 19.192 17.6663 19.2048 17.9073 19.0842L20.877 17.5993L23.8468 19.0842C23.9566 19.139 24.0757 19.1663 24.1945 19.1663C24.3367 19.1663 24.4784 19.1273 24.6033 19.0502C24.8325 18.9085 24.9721 18.6582 24.9721 18.3888V9.21382H45.7583C46.2442 9.21382 46.6395 9.60912 46.6395 10.095V51.5637H46.6394Z" fill="#784F33"/>
</g>
</g>
<path d="M39.6832 38.9504H25.7261L26.4269 37.5231L38.0707 37.502C38.4644 37.502 38.8019 37.2207 38.8722 36.8317L40.4847 27.8059C40.5269 27.5692 40.4636 27.3254 40.3089 27.1403C40.2325 27.0491 40.1371 26.9757 40.0295 26.9251C39.9218 26.8746 39.8044 26.848 39.6855 26.8473L24.873 26.7981L24.7464 26.2028C24.6667 25.8231 24.3246 25.5465 23.9355 25.5465H20.3144C20.095 25.5465 19.8845 25.6337 19.7294 25.7888C19.5742 25.944 19.4871 26.1544 19.4871 26.3739C19.4871 26.5933 19.5742 26.8037 19.7294 26.9589C19.8845 27.114 20.095 27.2012 20.3144 27.2012H23.2652L23.8183 29.8309L25.18 36.4239L23.4269 39.2856C23.3359 39.4085 23.281 39.5544 23.2686 39.7068C23.2562 39.8592 23.2867 40.0121 23.3566 40.1481C23.4972 40.427 23.7808 40.6028 24.0949 40.6028H25.5667C25.253 41.0195 25.0835 41.5272 25.0839 42.0489C25.0839 43.3754 26.1621 44.4535 27.4886 44.4535C28.8152 44.4535 29.8933 43.3754 29.8933 42.0489C29.8933 41.5262 29.7199 41.0176 29.4105 40.6028H33.1863C32.8725 41.0195 32.703 41.5272 32.7035 42.0489C32.7035 43.3754 33.7816 44.4535 35.1082 44.4535C36.4347 44.4535 37.5128 43.3754 37.5128 42.0489C37.5128 41.5262 37.3394 41.0176 37.03 40.6028H39.6855C40.1402 40.6028 40.5128 40.2324 40.5128 39.7754C40.5115 39.5562 40.4235 39.3465 40.268 39.1919C40.1126 39.0373 39.9024 38.9505 39.6832 38.9504ZM25.2175 28.4293L38.7128 28.4739L37.391 35.8754L26.7902 35.8942L25.2175 28.4293ZM27.4886 42.7895C27.0808 42.7895 26.748 42.4567 26.748 42.0489C26.748 41.641 27.0808 41.3082 27.4886 41.3082C27.8964 41.3082 28.2292 41.641 28.2292 42.0489C28.2292 42.2453 28.1512 42.4337 28.0123 42.5726C27.8734 42.7114 27.685 42.7895 27.4886 42.7895ZM35.1082 42.7895C34.7003 42.7895 34.3675 42.4567 34.3675 42.0489C34.3675 41.641 34.7003 41.3082 35.1082 41.3082C35.516 41.3082 35.8488 41.641 35.8488 42.0489C35.8488 42.2453 35.7707 42.4337 35.6319 42.5726C35.493 42.7114 35.3046 42.7895 35.1082 42.7895Z" fill="#784F33"/>
</g>
<defs>
<clipPath id="clip0_31_583">
<rect width="38" height="48" fill="white" transform="translate(11 6)"/>
</clipPath>
<clipPath id="clip1_31_583">
<rect width="38" height="48" fill="white" transform="translate(11 6)"/>
</clipPath>
<clipPath id="clip2_31_583">
<rect width="38" height="48" fill="white" transform="translate(11 6)"/>
</clipPath>
</defs>
</svg>
