<svg width="61" height="60" viewBox="0 0 61 60" fill="none" xmlns="http://www.w3.org/2000/svg">
<g clip-path="url(#clip0_31_597)">
<g clip-path="url(#clip1_31_597)">
<g clip-path="url(#clip2_31_597)">
<path d="M53.7272 30.7287H52.7665L50.6132 10.8017C50.5684 10.4111 50.2332 10.1188 49.8403 10.1283H43.8837C43.4908 10.1188 43.1556 10.4111 43.1108 10.8017L40.9575 30.7287H40.4102V27.0813C40.4181 26.8152 40.2864 26.5647 40.0629 26.4205C39.8404 26.2789 39.5595 26.2656 39.3246 26.3852L31.6647 30.2033V27.0813C31.6621 26.8046 31.5137 26.5495 31.2745 26.4106C31.1815 26.3571 31.0783 26.3225 30.9716 26.31C31.8898 24.5013 32.367 22.501 32.3639 20.4729C32.3639 13.3403 26.5606 7.53772 19.4284 7.53772C12.2961 7.53772 6.5 13.3407 6.5 20.4729C6.50418 25.5406 9.46525 30.1399 14.0767 32.2417V50.8097C14.0767 51.239 14.4107 51.6205 14.84 51.6205H53.7272C54.1618 51.6042 54.5046 51.2447 54.5 50.8097V31.5504C54.5 31.1211 54.1565 30.7287 53.7272 30.7287ZM49.8745 18.4851H43.8499L44.1099 16.0558H49.6153L49.8745 18.4851ZM49.1423 11.6831L49.4471 14.501H44.2777L44.5821 11.6831H49.1423ZM43.6813 20.0398H50.0423L51.2023 30.7287H42.521L43.6813 20.0398ZM8.04753 20.4729C8.04753 14.1879 13.1426 9.09284 19.4276 9.09284C25.7126 9.09284 30.8077 14.1879 30.8077 20.4729C30.8077 26.7583 25.7126 31.853 19.4276 31.853C13.1452 31.8461 8.05436 26.7553 8.04753 20.4729ZM52.9453 50.0658H15.6315V32.8349C16.8624 33.2187 18.145 33.4119 19.4344 33.4081C23.2169 33.4092 26.81 31.752 29.2647 28.8741L30.11 28.4045V31.4582C30.1073 31.7262 30.2444 31.9763 30.4713 32.119C30.6911 32.2606 30.9701 32.2739 31.2028 32.154L38.8554 28.3362V31.5504C38.8554 31.9797 39.2452 32.2834 39.6745 32.2834H52.9453V50.0658Z" fill="#784F33"/>
<path d="M26.709 40.8345C26.709 40.4052 26.3609 40.0571 25.9316 40.0571H19.7127C19.2834 40.0571 18.9353 40.4052 18.9353 40.8345V46.1789C18.9353 46.6082 19.2834 46.9563 19.7127 46.9563H25.9316C26.3609 46.9563 26.709 46.6082 26.709 46.1789V40.8345ZM25.1543 45.4016H20.49V41.6119H25.1543V45.4016Z" fill="#784F33"/>
<path d="M38.1754 40.8345C38.1754 40.4052 37.8274 40.0571 37.3981 40.0571H31.1791C30.7498 40.0571 30.4017 40.4052 30.4017 40.8345V46.1789C30.4017 46.6082 30.7498 46.9563 31.1791 46.9563H37.3981C37.8274 46.9563 38.1754 46.6082 38.1754 46.1789V40.8345ZM36.6207 45.4016H31.9565V41.6119H36.6207V45.4016Z" fill="#784F33"/>
<path d="M49.7386 40.8345C49.7386 40.4052 49.3905 40.0571 48.9612 40.0571H42.7422C42.3129 40.0571 41.9648 40.4052 41.9648 40.8345V46.1789C41.9648 46.6082 42.3129 46.9563 42.7422 46.9563H48.9612C49.3905 46.9563 49.7386 46.6082 49.7386 46.1789V40.8345ZM43.5196 41.6119H48.0866V45.4016H43.5196V41.6119Z" fill="#784F33"/>
<path d="M25.8984 36.6561H19.7243C19.295 36.6561 18.9469 37.0042 18.9469 37.4335C18.9469 37.8628 19.295 38.2109 19.7243 38.2109H25.8984C26.3277 38.2109 26.6758 37.8628 26.6758 37.4335C26.6758 37.0042 26.3277 36.6561 25.8984 36.6561Z" fill="#784F33"/>
<path d="M37.3709 36.6561H31.1967C30.7674 36.6561 30.4193 37.0042 30.4193 37.4335C30.4193 37.8628 30.7674 38.2109 31.1967 38.2109H37.3709C37.8002 38.2109 38.1482 37.8628 38.1482 37.4335C38.1482 37.0042 37.8002 36.6561 37.3709 36.6561Z" fill="#784F33"/>
<path d="M42.7154 38.2109H48.8895C49.3188 38.2109 49.6669 37.8628 49.6669 37.4335C49.6669 37.0042 49.3188 36.6561 48.8895 36.6561H42.7154C42.2861 36.6561 41.938 37.0042 41.938 37.4335C41.938 37.8628 42.2861 38.2109 42.7154 38.2109Z" fill="#784F33"/>
<path d="M28.4974 22.9123C28.497 22.9066 28.4968 22.9007 28.4963 22.8951C28.4949 22.8827 28.4926 22.8705 28.4905 22.8582C28.489 22.8498 28.4878 22.8413 28.486 22.833C28.4842 22.8248 28.4817 22.8167 28.4796 22.8085C28.4763 22.7964 28.4732 22.7841 28.4692 22.7722C28.4675 22.7669 28.4652 22.7617 28.4633 22.7564C28.458 22.7419 28.4525 22.7276 28.4462 22.7137C28.4457 22.7126 28.4455 22.7116 28.445 22.7105L25.7735 16.9081V16.3398H26.4978C26.8507 16.3398 27.1368 16.0636 27.1368 15.7229C27.1368 15.3823 26.8507 15.1061 26.4978 15.1061H19.639V14.2643C20.4305 14.0062 21.0022 13.283 21.0022 12.4329C21.0022 11.3671 20.104 10.5 19 10.5C17.896 10.5 16.9978 11.3671 16.9978 12.4329C16.9978 13.283 17.5695 14.0062 18.361 14.2643V15.1061H11.5022C11.1493 15.1061 10.8632 15.3823 10.8632 15.7229C10.8632 16.0636 11.1493 16.3398 11.5022 16.3398H12.2265V16.9081L9.55504 22.7105C9.55453 22.7116 9.55419 22.7127 9.55376 22.7138C9.54746 22.7277 9.542 22.7419 9.53681 22.7563C9.53485 22.7616 9.53255 22.7668 9.53076 22.7722C9.52675 22.7841 9.52369 22.7963 9.52045 22.8085C9.51823 22.8167 9.51576 22.8248 9.51397 22.833C9.51218 22.8413 9.51108 22.8498 9.50954 22.8582C9.50741 22.8705 9.50511 22.8827 9.50375 22.8951C9.50315 22.9007 9.50298 22.9066 9.50256 22.9123C9.50128 22.9274 9.50026 22.9424 9.50017 22.9575C9.50017 22.9587 9.5 22.9599 9.5 22.961C9.5 24.3897 11.0098 25.5519 12.8655 25.5519C14.7212 25.5519 16.2309 24.3897 16.2309 22.961C16.2309 22.9598 16.2308 22.9587 16.2308 22.9575C16.2307 22.9424 16.2297 22.9275 16.2284 22.9123C16.228 22.9066 16.2278 22.9007 16.2272 22.8951C16.2258 22.8827 16.2235 22.8705 16.2214 22.8582C16.22 22.8498 16.2188 22.8413 16.217 22.833C16.2152 22.8248 16.2126 22.8167 16.2105 22.8085C16.2073 22.7964 16.2042 22.7841 16.2002 22.7722C16.1984 22.7669 16.1962 22.7617 16.1942 22.7564C16.1889 22.7419 16.1835 22.7276 16.1772 22.7137C16.1767 22.7126 16.1764 22.7116 16.1759 22.7105L13.5045 16.9081V16.3398H18.361V21.7876C17.5695 22.0457 16.9978 22.7689 16.9978 23.619V28.2662H15.5919C15.2389 28.2662 14.9529 28.5424 14.9529 28.8831C14.9529 29.2238 15.2389 29.5 15.5919 29.5H22.4081C22.7611 29.5 23.0471 29.2238 23.0471 28.8831C23.0471 28.5424 22.7611 28.2662 22.4081 28.2662H21.0022V23.619C21.0022 22.7689 20.4305 22.0457 19.639 21.7876V16.3398H24.4955V16.9081L21.8241 22.7105C21.8236 22.7116 21.8232 22.7127 21.8228 22.7138C21.8165 22.7277 21.8111 22.7419 21.8059 22.7563C21.8039 22.7616 21.8016 22.7668 21.7998 22.7722C21.7958 22.7841 21.7927 22.7963 21.7895 22.8085C21.7873 22.8167 21.7848 22.8248 21.783 22.833C21.7812 22.8413 21.7801 22.8498 21.7786 22.8582C21.7765 22.8705 21.7742 22.8827 21.7728 22.8951C21.7722 22.9007 21.772 22.9066 21.7716 22.9123C21.7703 22.9274 21.7693 22.9424 21.7692 22.9575C21.7692 22.9587 21.7691 22.9599 21.7691 22.961C21.7691 24.3897 23.2788 25.5519 25.1345 25.5519C26.9902 25.5519 28.5 24.3897 28.5 22.961C28.5 22.9598 28.4998 22.9587 28.4998 22.9575C28.4997 22.9424 28.4987 22.9274 28.4974 22.9123ZM19 11.7338C19.3993 11.7338 19.7242 12.0474 19.7242 12.4329C19.7242 12.8184 19.3993 13.132 19 13.132C18.6007 13.132 18.2758 12.8184 18.2758 12.4329C18.2758 12.0474 18.6007 11.7338 19 11.7338ZM12.8655 18.5579L14.6086 22.3442H11.1222L12.8655 18.5579ZM12.8655 24.3182C12.0729 24.3182 11.3666 24.0134 11.0145 23.5779H14.7164C14.3643 24.0134 13.658 24.3182 12.8655 24.3182ZM19.7242 28.2662H18.2758V23.619C18.2758 23.2335 18.6007 22.9199 19 22.9199C19.3993 22.9199 19.7242 23.2335 19.7242 23.619V28.2662ZM25.1345 18.5579L26.8777 22.3442H23.3913L25.1345 18.5579ZM25.1345 24.3182C24.342 24.3182 23.6357 24.0134 23.2835 23.5779H26.9855C26.6334 24.0134 25.9271 24.3182 25.1345 24.3182Z" fill="#784F33"/>
</g>
</g>
</g>
<defs>
<clipPath id="clip0_31_597">
<rect width="48.0001" height="45" fill="white" transform="translate(6.5 7.5)"/>
</clipPath>
<clipPath id="clip1_31_597">
<rect width="48.0001" height="45" fill="white" transform="translate(6.5 7.5)"/>
</clipPath>
<clipPath id="clip2_31_597">
<rect width="48.0001" height="45" fill="white" transform="translate(6.5 7.5)"/>
</clipPath>
</defs>
</svg>
