<svg width="24" height="24" viewBox="0 0 24 24" fill="none" xmlns="http://www.w3.org/2000/svg">
<g id="smallcaps">
<g id="vuesax/outline/smallcaps">
<g id="smallcaps_2">
<path id="Vector" d="M18.6102 6.68007C18.2002 6.68007 17.8602 6.34007 17.8602 5.93007V4.42007C17.8602 3.82007 17.3702 3.32007 16.7602 3.32007H3.83023C3.23023 3.32007 2.73023 3.81007 2.73023 4.42007V5.93007C2.73023 6.34007 2.39023 6.68007 1.98023 6.68007C1.57023 6.68007 1.24023 6.34007 1.24023 5.93007V4.42007C1.24023 2.99007 2.41023 1.82007 3.84023 1.82007H16.7602C18.1902 1.82007 19.3602 2.98007 19.3602 4.42007V5.93007C19.3602 6.34007 19.0202 6.68007 18.6102 6.68007Z" fill="#292D32"/>
<path id="Vector_2" d="M10.2998 18.8501C9.8898 18.8501 9.5498 18.5101 9.5498 18.1001V3.32007C9.5498 2.91007 9.8898 2.57007 10.2998 2.57007C10.7098 2.57007 11.0498 2.91007 11.0498 3.32007V18.1001C11.0498 18.5201 10.7098 18.8501 10.2998 18.8501Z" fill="#292D32"/>
<path id="Vector_3" d="M12.4804 18.8501H6.90039C6.49039 18.8501 6.15039 18.5101 6.15039 18.1001C6.15039 17.6901 6.49039 17.3501 6.90039 17.3501H12.4804C12.8904 17.3501 13.2304 17.6901 13.2304 18.1001C13.2304 18.5101 12.8904 18.8501 12.4804 18.8501Z" fill="#292D32"/>
<path id="Vector_4" d="M22.0097 13.2001C21.5997 13.2001 21.2597 12.8601 21.2597 12.4501V11.6501C21.2597 11.3401 20.9997 11.0801 20.6897 11.0801H13.6797C13.2697 11.0801 12.9297 10.7401 12.9297 10.3301C12.9297 9.92008 13.2697 9.58008 13.6797 9.58008H20.6897C21.8297 9.58008 22.7597 10.5101 22.7597 11.6501V12.4501C22.7597 12.8701 22.4297 13.2001 22.0097 13.2001Z" fill="#292D32"/>
<path id="Vector_5" d="M16.0801 22.1801C15.6701 22.1801 15.3301 21.8401 15.3301 21.4301V10.8701C15.3301 10.4601 15.6701 10.1201 16.0801 10.1201C16.4901 10.1201 16.8301 10.4601 16.8301 10.8701V21.4301C16.8301 21.8401 16.4901 22.1801 16.0801 22.1801Z" fill="#292D32"/>
<path id="Vector_6" d="M18.2204 22.1799H13.9404C13.5304 22.1799 13.1904 21.8399 13.1904 21.4299C13.1904 21.0199 13.5304 20.6799 13.9404 20.6799H18.2204C18.6304 20.6799 18.9704 21.0199 18.9704 21.4299C18.9704 21.8399 18.6304 22.1799 18.2204 22.1799Z" fill="#292D32"/>
</g>
</g>
</g>
</svg>
