<svg width="24" height="24" viewBox="0 0 24 24" fill="none" xmlns="http://www.w3.org/2000/svg">
<g id="pharagraphspacing">
<g id="vuesax/outline/pharagraphspacing">
<g id="pharagraphspacing_2">
<path id="Vector" d="M21 22.75H3C2.59 22.75 2.25 22.41 2.25 22C2.25 21.59 2.59 21.25 3 21.25H21C21.41 21.25 21.75 21.59 21.75 22C21.75 22.41 21.41 22.75 21 22.75Z" fill="#292D32"/>
<path id="Vector_2" d="M21 2.75H3C2.59 2.75 2.25 2.41 2.25 2C2.25 1.59 2.59 1.25 3 1.25H21C21.41 1.25 21.75 1.59 21.75 2C21.75 2.41 21.41 2.75 21 2.75Z" fill="#292D32"/>
<path id="Vector_3" d="M12 18.75C11.59 18.75 11.25 18.41 11.25 18V6C11.25 5.59 11.59 5.25 12 5.25C12.41 5.25 12.75 5.59 12.75 6V18C12.75 18.41 12.41 18.75 12 18.75Z" fill="#292D32"/>
<path id="Vector_4" d="M14.8304 8.4699C14.6404 8.4699 14.4504 8.3999 14.3004 8.2499L12.0004 5.9499L9.70035 8.2499C9.41035 8.5399 8.93035 8.5399 8.64035 8.2499C8.35035 7.9599 8.35035 7.4799 8.64035 7.1899L11.4704 4.3599C11.7504 4.0799 12.2504 4.0799 12.5304 4.3599L15.3604 7.1899C15.6504 7.4799 15.6504 7.9599 15.3604 8.2499C15.2104 8.3999 15.0204 8.4699 14.8304 8.4699Z" fill="#292D32"/>
<path id="Vector_5" d="M12.0004 19.4701C11.8004 19.4701 11.6104 19.3901 11.4704 19.2501L8.64035 16.4201C8.35035 16.1301 8.35035 15.6501 8.64035 15.3601C8.93035 15.0701 9.41035 15.0701 9.70035 15.3601L12.0004 17.6601L14.3004 15.3601C14.5904 15.0701 15.0704 15.0701 15.3604 15.3601C15.6504 15.6501 15.6504 16.1301 15.3604 16.4201L12.5304 19.2501C12.3904 19.3901 12.2004 19.4701 12.0004 19.4701Z" fill="#292D32"/>
</g>
</g>
</g>
</svg>
