<svg width="25" height="24" viewBox="0 0 25 24" fill="none" xmlns="http://www.w3.org/2000/svg">
<g id="vuesax/outline/video-square">
<g id="video-square">
<path id="Vector" d="M15.5 22.75H9.5C4.07 22.75 1.75 20.43 1.75 15V9C1.75 3.57 4.07 1.25 9.5 1.25H15.5C20.93 1.25 23.25 3.57 23.25 9V15C23.25 20.43 20.93 22.75 15.5 22.75ZM9.5 2.75C4.89 2.75 3.25 4.39 3.25 9V15C3.25 19.61 4.89 21.25 9.5 21.25H15.5C20.11 21.25 21.75 19.61 21.75 15V9C21.75 4.39 20.11 2.75 15.5 2.75H9.5Z" fill="#292D32"/>
<path id="Vector_2" d="M11.2598 16.3701C10.8398 16.3701 10.4498 16.27 10.0998 16.07C9.29984 15.61 8.83984 14.67 8.83984 13.48V10.52C8.83984 9.34005 9.29984 8.39005 10.0998 7.93005C10.8998 7.47005 11.9398 7.54005 12.9698 8.14005L15.5398 9.62005C16.5598 10.21 17.1498 11.08 17.1498 12C17.1498 12.92 16.5598 13.79 15.5398 14.38L12.9698 15.86C12.3898 16.2 11.7998 16.3701 11.2598 16.3701ZM11.2698 9.13005C11.1098 9.13005 10.9698 9.16005 10.8598 9.23005C10.5398 9.42005 10.3498 9.89005 10.3498 10.52V13.48C10.3498 14.11 10.5298 14.58 10.8598 14.77C11.1798 14.96 11.6798 14.88 12.2298 14.56L14.7998 13.08C15.3498 12.76 15.6598 12.37 15.6598 12C15.6598 11.63 15.3498 11.23 14.7998 10.92L12.2298 9.44005C11.8698 9.23005 11.5398 9.13005 11.2698 9.13005Z" fill="#292D32"/>
</g>
</g>
</svg>
