<svg width="32" height="32" viewBox="0 0 32 32" fill="none" xmlns="http://www.w3.org/2000/svg">
<g id="Group">
<path id="Vector" d="M16.1822 0C7.53485 0 0.5 7.03514 0.5 15.6823C0.5 19.0667 1.87364 22.1054 2.46436 23.2549C2.73938 23.7903 3.39649 24.0009 3.93157 23.726C4.46679 23.451 4.67773 22.7941 4.40272 22.2588C3.88464 21.2504 2.67938 18.5909 2.67938 15.6822C2.67923 8.23677 8.73663 2.17923 16.1822 2.17923C23.6285 2.17923 29.6863 8.23677 29.6863 15.6823C29.6863 23.1282 23.6285 29.1857 16.1822 29.1857C13.2702 29.1857 10.9563 28.1775 10.0965 27.7438C9.8415 27.6151 9.54614 27.5919 9.27417 27.6789L2.41075 29.8722C1.83761 30.0554 1.52133 30.6685 1.70453 31.2418C1.85243 31.7048 2.28101 32 2.74214 32C2.85212 32 2.96384 31.9833 3.07411 31.948L9.52333 29.887C10.8726 30.5133 13.2474 31.365 16.1822 31.365C24.83 31.365 31.8656 24.3298 31.8656 15.6823C31.8656 7.03514 24.83 0 16.1822 0Z" fill="white"/>
<path id="Vector_2" d="M13.0904 13.0081C12.6132 13.3747 12.5235 14.0587 12.8899 14.5361C13.2565 15.0133 13.9403 15.1031 14.4178 14.7365C14.7519 14.48 15.6391 13.7986 15.5092 12.5798C15.4292 11.8553 14.7222 10.8611 14.1433 10.1549C13.2961 9.12139 12.579 8.50931 12.0159 8.33701C11.4882 8.17342 10.9475 8.19928 10.4082 8.41401C9.29883 8.85741 8.51591 9.59196 8.14399 10.5383C7.7818 11.46 7.84761 12.4914 8.33474 13.522C9.47186 15.9223 10.9917 17.9954 12.852 19.6838C12.8593 19.6907 12.8667 19.6974 12.8741 19.704C14.7609 21.3719 16.9931 22.6569 19.5098 23.5239C19.9874 23.688 20.4561 23.7698 20.9062 23.7698C21.4716 23.7698 22.0078 23.6407 22.4955 23.3836C23.395 22.9094 24.0386 22.0503 24.3572 20.8971C24.5106 20.338 24.4763 19.7982 24.2571 19.2955C24.0219 18.7514 23.3345 18.1065 22.2138 17.3788C21.4483 16.8816 20.3831 16.2892 19.6511 16.2892C19.6506 16.2892 19.65 16.2892 19.6495 16.2892C18.4282 16.2941 17.8484 17.2511 17.6302 17.6115C17.3184 18.1263 17.4829 18.7963 17.9976 19.1081C18.512 19.4199 19.1822 19.2555 19.4942 18.7407C19.5803 18.5983 19.6349 18.5227 19.6692 18.4832C20.2846 18.6619 21.9308 19.7388 22.2682 20.1919C22.2737 20.216 22.2744 20.2525 22.2563 20.3189C22.1489 20.7075 21.9268 21.2202 21.4791 21.4561C21.0609 21.6764 20.5621 21.5815 20.2185 21.4635C17.9793 20.6921 15.9976 19.5542 14.3284 18.0815C14.3279 18.0811 14.3273 18.0807 14.3269 18.0801C12.674 16.5825 11.3206 14.7352 10.3043 12.5901C10.1487 12.2606 9.99924 11.7755 10.1721 11.3358C10.3572 10.8648 10.8423 10.5876 11.2157 10.4384C11.2798 10.4128 11.3159 10.4089 11.3422 10.4124C11.8301 10.6978 13.0811 12.2142 13.3268 12.8062C13.2913 12.8444 13.2222 12.9069 13.0904 13.0081Z" fill="white"/>
</g>
</svg>
