<svg width="21" height="21" viewBox="0 0 21 21" fill="none" xmlns="http://www.w3.org/2000/svg">
<g id="Edit Square">
<path id="Stroke 1" d="M9.99224 0.789001H6.25324C3.17824 0.789001 1.25024 2.966 1.25024 6.048V14.362C1.25024 17.444 3.16924 19.621 6.25324 19.621H15.0772C18.1622 19.621 20.0812 17.444 20.0812 14.362V10.334" stroke="black" stroke-width="1.5" stroke-linecap="round" stroke-linejoin="round"/>
<path id="Stroke 3" fill-rule="evenodd" clip-rule="evenodd" d="M7.32763 8.9209L14.8006 1.4479C15.7316 0.517897 17.2406 0.517897 18.1716 1.4479L19.3886 2.6649C20.3196 3.5959 20.3196 5.1059 19.3886 6.0359L11.8796 13.5449C11.4726 13.9519 10.9206 14.1809 10.3446 14.1809H6.59863L6.69263 10.4009C6.70663 9.8449 6.93363 9.3149 7.32763 8.9209Z" stroke="black" stroke-width="1.5" stroke-linecap="round" stroke-linejoin="round"/>
<path id="Stroke 5" d="M13.665 2.60251L18.231 7.16851" stroke="black" stroke-width="1.5" stroke-linecap="round" stroke-linejoin="round"/>
</g>
</svg>
