<svg width="32" height="32" viewBox="0 0 32 32" fill="none" xmlns="http://www.w3.org/2000/svg">
<g id="vuesax/outline/sms">
<g id="sms">
<path id="Vector" d="M22.6666 28.3333H9.33329C4.46663 28.3333 1.66663 25.5333 1.66663 20.6666V11.3333C1.66663 6.46663 4.46663 3.66663 9.33329 3.66663H22.6666C27.5333 3.66663 30.3333 6.46663 30.3333 11.3333V20.6666C30.3333 25.5333 27.5333 28.3333 22.6666 28.3333ZM9.33329 5.66663C5.51996 5.66663 3.66663 7.51996 3.66663 11.3333V20.6666C3.66663 24.48 5.51996 26.3333 9.33329 26.3333H22.6666C26.48 26.3333 28.3333 24.48 28.3333 20.6666V11.3333C28.3333 7.51996 26.48 5.66663 22.6666 5.66663H9.33329Z" fill="white"/>
<path id="Vector_2" d="M15.9997 17.16C14.8797 17.16 13.7464 16.8133 12.8797 16.1066L8.70641 12.7733C8.27974 12.4266 8.19975 11.8 8.54642 11.3733C8.89308 10.9466 9.51975 10.8666 9.94642 11.2133L14.1197 14.5466C15.1331 15.36 16.8531 15.36 17.8664 14.5466L22.0397 11.2133C22.4664 10.8666 23.1064 10.9333 23.4397 11.3733C23.7864 11.8 23.7198 12.44 23.2798 12.7733L19.1064 16.1066C18.2531 16.8133 17.1197 17.16 15.9997 17.16Z" fill="white"/>
</g>
</g>
</svg>
