<svg width="48" height="45" viewBox="0 0 48 45" fill="none" xmlns="http://www.w3.org/2000/svg">
<g id="Icon">
<path id="Vector 15" d="M42.4603 4.08812L39.3682 10.9122C39.2264 11.2251 39.1531 11.5645 39.1531 11.908V42.3471C39.1531 43.2354 39.8732 43.9556 40.7615 43.9556H44.8916C45.7799 43.9556 46.5 43.2354 46.5 42.3471V11.908C46.5 11.5645 46.4267 11.2251 46.2849 10.9122L43.1928 4.08812C43.0501 3.77325 42.6029 3.77325 42.4603 4.08812Z" stroke="#D0A144" stroke-width="1.60846"/>
<path id="Vector 16" d="M39.1531 11.908H43.2857H46.5" stroke="#D0A144" stroke-width="1.60846"/>
<rect id="Rectangle 377" x="6.19214" y="19.9934" width="22.5215" height="1.87679" rx="0.938397" fill="#D0A144"/>
<rect id="Rectangle 381" x="7.26462" y="6.9902" width="8.17724" height="6.30045" rx="1.20635" stroke="#D0A144" stroke-width="1.60846"/>
<rect id="Rectangle 379" x="6.19214" y="29.3777" width="22.5215" height="1.87679" rx="0.938397" fill="#D0A144"/>
<rect id="Rectangle 382" x="6.19214" y="34.0693" width="14.076" height="1.87679" rx="0.938397" fill="#D0A144"/>
<rect id="Rectangle 378" x="6.19214" y="24.6858" width="22.5215" height="1.87679" rx="0.938397" fill="#D0A144"/>
<path id="Vector 17" d="M39.1531 39.8472H46.5" stroke="#D0A144" stroke-width="1.60846"/>
<path id="Vector 7" d="M1.5 6.8552V38.5297C1.5 41.6389 4.02046 44.1593 7.12961 44.1593H28.2489C31.3581 44.1593 33.8785 41.6389 33.8785 38.5297V13.0705C33.8785 11.4721 33.1991 9.94904 32.0097 8.88127L25.0863 2.666C24.0532 1.73857 22.7138 1.22559 21.3255 1.22559H7.12961C4.02046 1.22559 1.5 3.74605 1.5 6.8552Z" stroke="#D0A144" stroke-width="1.60846"/>
<path id="Vector 8" d="M21.5903 1.40039V9.1787C21.5903 10.9554 23.0306 12.3956 24.8073 12.3956H33.0984" stroke="#D0A144" stroke-width="1.60846" stroke-linecap="round"/>
</g>
</svg>
