<svg width="40" height="40" viewBox="0 0 40 40" fill="none" xmlns="http://www.w3.org/2000/svg">
<g id="vuesax/outline/sms">
<g id="sms">
<path id="Vector" d="M28.3333 35.4066H11.6667C5.58334 35.4066 2.08334 31.9066 2.08334 25.8232V14.1566C2.08334 8.07324 5.58334 4.57324 11.6667 4.57324H28.3333C34.4167 4.57324 37.9167 8.07324 37.9167 14.1566V25.8232C37.9167 31.9066 34.4167 35.4066 28.3333 35.4066ZM11.6667 7.07324C6.90001 7.07324 4.58334 9.38991 4.58334 14.1566V25.8232C4.58334 30.5899 6.90001 32.9066 11.6667 32.9066H28.3333C33.1 32.9066 35.4167 30.5899 35.4167 25.8232V14.1566C35.4167 9.38991 33.1 7.07324 28.3333 7.07324H11.6667Z" fill="black"/>
<path id="Vector_2" d="M19.9996 21.4402C18.5996 21.4402 17.183 21.0069 16.0996 20.1235L10.883 15.9569C10.3496 15.5235 10.2496 14.7402 10.683 14.2068C11.1163 13.6735 11.8996 13.5735 12.433 14.0069L17.6496 18.1735C18.9163 19.1902 21.0663 19.1902 22.3329 18.1735L27.5496 14.0069C28.083 13.5735 28.883 13.6568 29.2996 14.2068C29.733 14.7402 29.6496 15.5402 29.0996 15.9569L23.883 20.1235C22.8163 21.0069 21.3996 21.4402 19.9996 21.4402Z" fill="black"/>
</g>
</g>
</svg>
