<svg width="40" height="41" viewBox="0 0 40 41" fill="none" xmlns="http://www.w3.org/2000/svg">
<g id="vuesax/outline/call">
<g id="call">
<path id="Vector" d="M29.0833 38.4066C27.2 38.4066 25.2167 37.9566 23.1667 37.0899C21.1667 36.2399 19.15 35.0732 17.1833 33.6566C15.2333 32.2232 13.35 30.6232 11.5667 28.8732C9.80001 27.0899 8.20001 25.2066 6.78334 23.2732C5.35001 21.2732 4.20001 19.2732 3.38334 17.3399C2.51668 15.2732 2.08334 13.2732 2.08334 11.3899C2.08334 10.0899 2.31668 8.85658 2.76668 7.70658C3.23334 6.52324 3.98334 5.42324 5.00001 4.47324C6.28334 3.20658 7.75001 2.57324 9.31668 2.57324C9.96668 2.57324 10.6333 2.72324 11.2 2.98991C11.85 3.28991 12.4 3.73991 12.8 4.33991L16.6667 9.78991C17.0167 10.2732 17.2833 10.7399 17.4667 11.2066C17.6833 11.7066 17.8 12.2066 17.8 12.6899C17.8 13.3232 17.6167 13.9399 17.2667 14.5232C17.0167 14.9732 16.6333 15.4566 16.15 15.9399L15.0167 17.1232C15.0333 17.1732 15.05 17.2066 15.0667 17.2399C15.2667 17.5899 15.6667 18.1899 16.4333 19.0899C17.25 20.0232 18.0167 20.8732 18.7833 21.6566C19.7667 22.6232 20.5833 23.3899 21.35 24.0232C22.3 24.8232 22.9167 25.2232 23.2833 25.4066L23.25 25.4899L24.4667 24.2899C24.9833 23.7732 25.4833 23.3899 25.9667 23.1399C26.8833 22.5732 28.05 22.4732 29.2167 22.9566C29.65 23.1399 30.1167 23.3899 30.6167 23.7399L36.15 27.6732C36.7667 28.0899 37.2167 28.6232 37.4833 29.2566C37.7333 29.8899 37.85 30.4732 37.85 31.0566C37.85 31.8566 37.6667 32.6566 37.3167 33.4066C36.9667 34.1566 36.5333 34.8066 35.9833 35.4066C35.0333 36.4566 34 37.2066 32.8 37.6899C31.65 38.1566 30.4 38.4066 29.0833 38.4066ZM9.31668 5.07324C8.40001 5.07324 7.55001 5.47324 6.73334 6.27324C5.96668 6.98991 5.43334 7.77324 5.10001 8.62324C4.75001 9.48991 4.58334 10.4066 4.58334 11.3899C4.58334 12.9399 4.95001 14.6232 5.68334 16.3566C6.43334 18.1232 7.48334 19.9566 8.81668 21.7899C10.15 23.6232 11.6667 25.4066 13.3333 27.0899C15 28.7399 16.8 30.2732 18.65 31.6232C20.45 32.9399 22.3 34.0066 24.1333 34.7732C26.9833 35.9899 29.65 36.2732 31.85 35.3566C32.7 35.0066 33.45 34.4732 34.1333 33.7066C34.5167 33.2899 34.8167 32.8399 35.0667 32.3066C35.2667 31.8899 35.3667 31.4566 35.3667 31.0232C35.3667 30.7566 35.3167 30.4899 35.1833 30.1899C35.1333 30.0899 35.0333 29.9066 34.7167 29.6899L29.1833 25.7566C28.85 25.5232 28.55 25.3566 28.2667 25.2399C27.9 25.0899 27.75 24.9399 27.1833 25.2899C26.85 25.4566 26.55 25.7066 26.2167 26.0399L24.95 27.2899C24.3 27.9232 23.3 28.0732 22.5333 27.7899L22.0833 27.5899C21.4 27.2232 20.6 26.6566 19.7167 25.9066C18.9167 25.2232 18.05 24.4232 17 23.3899C16.1833 22.5566 15.3667 21.6732 14.5167 20.6899C13.7333 19.7732 13.1667 18.9899 12.8167 18.3399L12.6167 17.8399C12.5167 17.4566 12.4833 17.2399 12.4833 17.0066C12.4833 16.4066 12.7 15.8732 13.1167 15.4566L14.3667 14.1566C14.7 13.8232 14.95 13.5066 15.1167 13.2232C15.25 13.0066 15.3 12.8232 15.3 12.6566C15.3 12.5232 15.25 12.3232 15.1667 12.1232C15.05 11.8566 14.8667 11.5566 14.6333 11.2399L10.7667 5.77324C10.6 5.53991 10.4 5.37324 10.15 5.25658C9.88334 5.13991 9.60001 5.07324 9.31668 5.07324ZM23.25 25.5066L22.9833 26.6399L23.4333 25.4732C23.35 25.4566 23.2833 25.4732 23.25 25.5066Z" fill="black"/>
</g>
</g>
</svg>
