<svg width="28" height="21" viewBox="0 0 28 21" fill="none" xmlns="http://www.w3.org/2000/svg">
<g id="Frame">
<path id="Vector" d="M14 12C18.9511 12 23.25 13.7626 23.25 17.6429C23.25 19.6593 22.4689 20.5 20.7941 20.5H7.20588C5.53111 20.5 4.75 19.6593 4.75 17.6429C4.75 13.7626 9.04892 12 14 12ZM14 14C10.054 14 6.75 15.3547 6.75 17.6429C6.75 18.5338 6.67853 18.5064 7.12213 18.5006L20.7941 18.5C21.3301 18.5 21.25 18.5862 21.25 17.6429C21.25 15.3547 17.946 14 14 14ZM13.75 0C16.7885 0 19.25 2.46147 19.25 5.5C19.25 8.53853 16.7885 11 13.75 11C10.7115 11 8.25 8.53853 8.25 5.5C8.25 2.46147 10.7115 0 13.75 0ZM13.75 2C11.816 2 10.25 3.56603 10.25 5.5C10.25 7.43397 11.816 9 13.75 9C15.684 9 17.25 7.43397 17.25 5.5C17.25 3.56603 15.684 2 13.75 2Z" fill="#D0A144"/>
</g>
</svg>
