<svg width="23" height="22" viewBox="0 0 23 22" fill="none" xmlns="http://www.w3.org/2000/svg">
<g id="Vector">
<path d="M6.28559 8.15688C6.15646 7.88477 5.87993 7.69614 5.55871 7.69614H1.30505C0.860422 7.69614 0.5 8.05657 0.5 8.5012V20.687C0.5 21.1316 0.860422 21.492 1.30505 21.492H5.55871C5.89241 21.492 6.1786 21.2891 6.30065 20.9998C6.91434 21.0859 7.54655 21.2605 8.20476 21.4427C9.19433 21.7167 10.2175 22 11.2805 22H15.928C17.3647 22 18.5289 21.2383 19.0423 19.9624C19.2924 19.3407 19.3361 18.6956 19.19 18.1555C19.4573 17.9152 19.6832 17.616 19.854 17.2667C20.2003 16.5589 20.2694 15.7629 20.0732 15.0926C20.439 14.7391 20.7119 14.2725 20.8546 13.7222C20.988 13.2078 20.9856 12.7002 20.867 12.2604C21.5931 11.8332 22.0822 11.0572 22.0822 10.1827C22.0822 9.49689 21.8151 8.86492 21.3302 8.4033C20.8645 7.96004 20.2443 7.71587 19.5839 7.71587L13.0331 7.71603C12.5354 7.09171 12.3805 6.24447 12.6639 5.56251C13.2454 4.16285 13.2094 2.97805 12.5472 1.72104C12.0557 0.788066 10.7339 -0.140804 9.62302 0.0177919C8.95153 0.113754 8.46568 0.588333 8.32318 1.28744C8.28124 1.49313 8.26973 1.71533 8.25644 1.97262C8.2236 2.60732 8.17851 3.47662 7.6306 4.52633C7.25923 5.23792 7.13533 5.96979 7.026 6.61552C6.86942 7.54053 6.7935 7.98612 6.28559 8.15688ZM2.11011 9.30625H4.75366V19.8819H2.11011V9.30625ZM8.61357 6.88425C8.70735 6.33029 8.80428 5.75742 9.05803 5.27141C9.76833 3.91054 9.82847 2.74958 9.86446 2.05594C9.87404 1.87118 9.88305 1.69665 9.90093 1.6089C9.90101 1.60833 9.90117 1.60769 9.90133 1.60713C10.1806 1.61099 10.8679 1.988 11.1227 2.47167C11.5637 3.30861 11.5783 3.97897 11.1771 4.94488C10.8152 5.81578 10.8424 6.82636 11.2004 7.72488C10.8087 7.77939 10.507 8.11469 10.507 8.52132C10.507 8.96587 10.8675 9.32638 11.312 9.32638L19.5839 9.32613C19.8292 9.32613 20.0551 9.4126 20.22 9.56958C20.3351 9.67899 20.4721 9.87429 20.4721 10.1828C20.4721 10.6146 20.0762 10.988 19.6076 10.9982L17.5355 11.0433C17.091 11.053 16.7385 11.4211 16.7481 11.8657C16.7577 12.3043 17.1161 12.6533 17.5527 12.6533C17.5586 12.6533 17.5645 12.6533 17.5706 12.6531L19.2963 12.6156C19.3526 12.7751 19.3819 13.0793 19.2634 13.4278C19.1625 13.7242 18.8918 14.2214 18.2107 14.2214C17.7661 14.2214 17.4056 14.5818 17.4056 15.0265C17.4056 15.4711 17.7661 15.8315 18.2107 15.8315C18.3327 15.8315 18.4525 15.824 18.5697 15.8091C18.5797 16.0369 18.5329 16.3038 18.4078 16.5593C18.26 16.8613 17.9679 17.2215 17.4154 17.2215C16.9709 17.2215 16.6104 17.582 16.6104 18.0266C16.6104 18.4712 16.9709 18.8316 17.4154 18.8316C17.4988 18.8316 17.5812 18.8279 17.6626 18.8206C17.6605 18.9751 17.6291 19.1682 17.5413 19.3795C17.415 19.6833 17.005 20.3899 15.9282 20.3899H11.2807C10.4364 20.3899 9.56119 20.1476 8.63458 19.891C7.89723 19.6868 7.1412 19.4777 6.36393 19.3843V9.78622C8.17642 9.45776 8.42631 7.99047 8.61357 6.88425Z" fill="#D0A144"/>
<path d="M2.11011 9.30625H4.75366V19.8819H2.11011V9.30625Z" fill="#D0A144"/>
</g>
</svg>
