<svg width="32" height="24" viewBox="-6.5 0 32 24" fill="none" xmlns="http://www.w3.org/2000/svg">
<path id="icon" fill-rule="evenodd" clip-rule="evenodd" d="M9.5 23.2407L10.1577 22.6624C15.6887 17.7996 18.5 13.5536 18.5 9.82129C18.5 4.53578 14.4029 0.759277 9.5 0.759277C4.59705 0.759277 0.5 4.53578 0.5 9.82129C0.5 13.5536 3.31131 17.7996 8.84227 22.6624L9.5 23.2407ZM9.5 20.5582C4.80661 16.2992 2.5 12.6902 2.5 9.82129C2.5 5.68962 5.66411 2.77306 9.5 2.77306C13.3359 2.77306 16.5 5.68962 16.5 9.82129C16.5 12.6902 14.1934 16.2992 9.5 20.5582ZM9.5 4.78684C12.2614 4.78684 14.5 7.04084 14.5 9.82129C14.5 12.6017 12.2614 14.8557 9.5 14.8557C6.73858 14.8557 4.5 12.6017 4.5 9.82129C4.5 7.04084 6.73858 4.78684 9.5 4.78684ZM6.5 9.82129C6.5 8.15302 7.84315 6.80062 9.5 6.80062C11.1569 6.80062 12.5 8.15302 12.5 9.82129C12.5 11.4896 11.1569 12.842 9.5 12.842C7.84315 12.842 6.5 11.4896 6.5 9.82129Z" fill="white"/>
</svg>
