<svg width="33" height="32" viewBox="0 0 33 32" fill="none" xmlns="http://www.w3.org/2000/svg">
<g id="call">
<g id="vuesax/outline/call">
<g id="call_2">
<path id="Vector" d="M23.7667 30.3334C22.26 30.3334 20.6733 29.9734 19.0333 29.28C17.4333 28.6 15.82 27.6667 14.2467 26.5334C12.6867 25.3867 11.18 24.1067 9.75332 22.7067C8.33999 21.28 7.05999 19.7734 5.92666 18.2267C4.77999 16.6267 3.85999 15.0267 3.20666 13.48C2.51332 11.8267 2.16666 10.2267 2.16666 8.72002C2.16666 7.68002 2.35332 6.69335 2.71332 5.77335C3.08666 4.82669 3.68666 3.94669 4.49999 3.18669C5.52666 2.17335 6.69999 1.66669 7.95332 1.66669C8.47332 1.66669 9.00666 1.78669 9.45999 2.00002C9.97999 2.24002 10.42 2.60002 10.74 3.08002L13.8333 7.44002C14.1133 7.82669 14.3267 8.20002 14.4733 8.57335C14.6467 8.97335 14.74 9.37335 14.74 9.76002C14.74 10.2667 14.5933 10.76 14.3133 11.2267C14.1133 11.5867 13.8067 11.9734 13.42 12.36L12.5133 13.3067C12.5267 13.3467 12.54 13.3734 12.5533 13.4C12.7133 13.68 13.0333 14.16 13.6467 14.88C14.3 15.6267 14.9133 16.3067 15.5267 16.9334C16.3133 17.7067 16.9667 18.32 17.58 18.8267C18.34 19.4667 18.8333 19.7867 19.1267 19.9334L19.1 20L20.0733 19.04C20.4867 18.6267 20.8867 18.32 21.2733 18.12C22.0067 17.6667 22.94 17.5867 23.8733 17.9734C24.22 18.12 24.5933 18.32 24.9933 18.6L29.42 21.7467C29.9133 22.08 30.2733 22.5067 30.4867 23.0134C30.6867 23.52 30.78 23.9867 30.78 24.4534C30.78 25.0934 30.6333 25.7334 30.3533 26.3334C30.0733 26.9334 29.7267 27.4534 29.2867 27.9334C28.5267 28.7734 27.7 29.3734 26.74 29.76C25.82 30.1334 24.82 30.3334 23.7667 30.3334ZM7.95332 3.66669C7.21999 3.66669 6.53999 3.98669 5.88666 4.62669C5.27332 5.20002 4.84666 5.82669 4.57999 6.50669C4.29999 7.20002 4.16666 7.93335 4.16666 8.72002C4.16666 9.96002 4.45999 11.3067 5.04666 12.6934C5.64666 14.1067 6.48666 15.5734 7.55332 17.04C8.61999 18.5067 9.83332 19.9334 11.1667 21.28C12.5 22.6 13.94 23.8267 15.42 24.9067C16.86 25.96 18.34 26.8134 19.8067 27.4267C22.0867 28.4 24.22 28.6267 25.98 27.8934C26.66 27.6134 27.26 27.1867 27.8067 26.5734C28.1133 26.24 28.3533 25.88 28.5533 25.4534C28.7133 25.12 28.7933 24.7734 28.7933 24.4267C28.7933 24.2134 28.7533 24 28.6467 23.76C28.6067 23.68 28.5267 23.5334 28.2733 23.36L23.8467 20.2134C23.58 20.0267 23.34 19.8934 23.1133 19.8C22.82 19.68 22.7 19.56 22.2467 19.84C21.98 19.9734 21.74 20.1734 21.4733 20.44L20.46 21.44C19.94 21.9467 19.14 22.0667 18.5267 21.84L18.1667 21.68C17.62 21.3867 16.98 20.9334 16.2733 20.3334C15.6333 19.7867 14.94 19.1467 14.1 18.32C13.4467 17.6534 12.7933 16.9467 12.1133 16.16C11.4867 15.4267 11.0333 14.8 10.7533 14.28L10.5933 13.88C10.5133 13.5734 10.4867 13.4 10.4867 13.2134C10.4867 12.7334 10.66 12.3067 10.9933 11.9734L11.9933 10.9334C12.26 10.6667 12.46 10.4134 12.5933 10.1867C12.7 10.0134 12.74 9.86669 12.74 9.73335C12.74 9.62669 12.7 9.46669 12.6333 9.30669C12.54 9.09335 12.3933 8.85335 12.2067 8.60002L9.11332 4.22669C8.97999 4.04002 8.81999 3.90669 8.61999 3.81335C8.40666 3.72002 8.17999 3.66669 7.95332 3.66669ZM19.1 20.0134L18.8867 20.92L19.2467 19.9867C19.18 19.9734 19.1267 19.9867 19.1 20.0134Z" fill="white"/>
</g>
</g>
</g>
</svg>
