<svg width="51" height="51" viewBox="0 0 51 51" fill="none" xmlns="http://www.w3.org/2000/svg">
<circle cx="25.8001" cy="25.9897" r="24.5" fill="#F9F9F9" stroke="#BDBDBD"/>
<path fill-rule="evenodd" clip-rule="evenodd" d="M24.7212 8.9572C24.3261 9.00138 23.7025 9.11928 23.3355 9.21905C22.9684 9.3189 22.3707 9.52435 22.0073 9.67566C21.6439 9.82696 21.0384 10.1519 20.6617 10.3979C20.285 10.6437 19.7352 11.0737 19.44 11.3533C19.1447 11.6328 18.6826 12.1581 18.4129 12.5207C18.1433 12.8832 17.7475 13.55 17.5336 14.0024C17.3196 14.4547 17.0452 15.1685 16.9238 15.5887C16.8023 16.0087 16.6527 16.7518 16.5913 17.2398C16.5243 17.7721 16.5004 18.5442 16.5314 19.1698C16.56 19.7433 16.6451 20.556 16.7208 20.9758C16.7964 21.3956 16.985 22.1229 17.1398 22.5921C17.2946 23.0613 17.5772 23.7807 17.7677 24.1908C17.9583 24.601 18.2646 25.1869 18.4484 25.4928C18.6322 25.7989 18.9627 26.2858 19.1828 26.575C19.4772 26.9617 19.5528 27.1194 19.4686 27.1714C19.4058 27.2102 18.4405 27.4701 17.3235 27.749C16.2065 28.0279 14.9088 28.3773 14.4396 28.5255C13.9705 28.6737 13.3085 28.9599 12.9686 29.1617C12.6288 29.3634 12.0804 29.7962 11.75 30.1235C11.4196 30.4508 11.0158 30.915 10.8527 31.1551C10.6896 31.3952 10.4212 31.9028 10.2563 32.2833C10.0915 32.6636 9.89446 33.3312 9.81859 33.7667C9.72466 34.3049 9.68048 35.1453 9.68048 36.3919C9.68048 37.8716 9.70733 38.2773 9.81957 38.4943C9.89599 38.6422 10.088 38.8421 10.2461 38.9385C10.5282 39.1106 10.8186 39.1138 26.0053 39.1141C39.6594 39.1145 41.5079 39.0985 41.7404 38.9782C41.8853 38.9033 42.0752 38.7114 42.1624 38.5517C42.3006 38.2988 42.3209 38.0069 42.3197 36.2859C42.3187 35.0482 42.2744 34.0759 42.201 33.6827C42.1366 33.3375 41.9631 32.7649 41.8155 32.4103C41.6679 32.0557 41.384 31.5301 41.1848 31.2421C40.9854 30.9542 40.6141 30.5027 40.3595 30.239C40.105 29.9752 39.6613 29.5978 39.3736 29.4004C39.0859 29.203 38.6212 28.939 38.3409 28.8137C38.0607 28.6884 36.6663 28.2912 35.2422 27.9311C33.8181 27.571 32.6306 27.2538 32.6031 27.2264C32.5756 27.1989 32.7122 26.9632 32.9065 26.7027C33.1009 26.442 33.4241 25.9662 33.6246 25.6451C33.8252 25.3241 34.0912 24.8594 34.2157 24.6125C34.3402 24.3656 34.5641 23.8578 34.7131 23.4841C34.8622 23.1104 35.0678 22.5043 35.1701 22.1372C35.2723 21.77 35.4179 21.1108 35.4936 20.6722C35.5727 20.2141 35.6314 19.3411 35.6314 18.621C35.6314 17.7148 35.5808 17.1193 35.4491 16.473C35.3489 15.9811 35.1479 15.2528 35.0025 14.8543C34.8571 14.456 34.5949 13.8695 34.4199 13.551C34.2448 13.2325 33.9329 12.7424 33.7267 12.4617C33.5205 12.1809 33.1069 11.7121 32.8078 11.4197C32.5087 11.1273 31.9408 10.6778 31.5457 10.4207C31.1506 10.1637 30.5445 9.83038 30.1987 9.67997C29.853 9.52956 29.2459 9.32393 28.8497 9.223C28.4534 9.12207 27.7665 8.99797 27.3231 8.94724C26.8798 8.89641 26.2747 8.85987 25.9784 8.86588C25.682 8.8719 25.1163 8.91303 24.7212 8.9572ZM27.9877 11.2857C28.4014 11.3813 29.0681 11.6145 29.4693 11.804C29.8705 11.9935 30.4564 12.3437 30.7713 12.5824C31.0862 12.821 31.5569 13.2746 31.8173 13.5903C32.0778 13.906 32.4131 14.3938 32.5625 14.6742C32.7118 14.9545 32.9362 15.4884 33.0611 15.8605C33.186 16.2326 33.3251 16.7725 33.3701 17.0601L33.4521 17.5831L33.1361 17.5319C32.9623 17.5037 32.523 17.3395 32.1599 17.1671C31.7968 16.9946 31.3485 16.7431 31.1635 16.6081C30.9786 16.4732 30.6322 16.1783 30.3938 15.9529C30.1553 15.7275 29.9027 15.4341 29.8326 15.3007C29.7623 15.1673 29.7049 14.9582 29.7049 14.8361C29.7049 14.714 29.6012 14.4909 29.4746 14.3404C29.3479 14.1899 29.1055 14.0285 28.9359 13.9816C28.7413 13.9279 28.5134 13.9279 28.3188 13.9816C28.1492 14.0285 27.9067 14.1899 27.78 14.3404C27.6301 14.5186 27.5498 14.7223 27.5498 14.9244C27.5498 15.095 27.489 15.3801 27.4147 15.558C27.3404 15.7358 27.0166 16.1354 26.6951 16.4459C26.2626 16.8639 25.8718 17.1282 25.1915 17.4633C24.6859 17.7123 23.9692 18.016 23.5988 18.1382C23.2284 18.2602 22.5155 18.4434 22.0145 18.5452C21.5136 18.647 20.7257 18.7702 20.2635 18.8189C19.8014 18.8676 19.2515 18.9081 19.0417 18.909L18.66 18.9105V18.5265C18.66 18.3153 18.7024 17.8046 18.7542 17.3915C18.806 16.9784 18.9674 16.2723 19.1128 15.8224C19.2582 15.3725 19.5539 14.726 19.7699 14.3859C19.9859 14.0457 20.4308 13.4981 20.7585 13.169C21.0862 12.8398 21.6674 12.3824 22.05 12.1524C22.4327 11.9225 23.1106 11.613 23.5567 11.4647C24.0027 11.3164 24.6896 11.1567 25.0832 11.1099C25.4768 11.063 26.122 11.0443 26.5171 11.0683C26.9122 11.0922 27.574 11.1901 27.9877 11.2857ZM30.3222 18.6737C30.7095 18.9078 31.3133 19.2161 31.6641 19.3588C32.0149 19.5016 32.5468 19.6666 32.846 19.7255L33.3901 19.8325L33.3363 20.1572C33.3066 20.3358 33.2013 20.819 33.1021 21.231C33.0029 21.643 32.7851 22.3189 32.6181 22.7332C32.4512 23.1473 32.2274 23.6588 32.1209 23.8698C32.0144 24.0807 31.705 24.5959 31.4333 25.0146C31.1616 25.4333 30.6717 26.0546 30.3446 26.3953C30.0174 26.7359 29.5327 27.1761 29.2675 27.3734C29.0022 27.5707 28.4971 27.8636 28.145 28.0244C27.7929 28.1851 27.2872 28.3674 27.0212 28.4294C26.7242 28.4988 26.2565 28.5233 25.809 28.4929C25.4082 28.4657 24.8383 28.3582 24.5425 28.254C24.2466 28.1497 23.7324 27.9028 23.3998 27.7051C23.0672 27.5075 22.5497 27.1188 22.2499 26.8411C21.95 26.5636 21.4431 25.989 21.1235 25.5642C20.8037 25.1396 20.341 24.4017 20.0952 23.9247C19.8494 23.4476 19.5037 22.6256 19.3272 22.0979C19.1506 21.5702 19.0192 21.1289 19.0351 21.117C19.0511 21.1053 19.6096 21.0489 20.2763 20.9919C20.9431 20.9347 21.8927 20.8045 22.3865 20.7025C22.8804 20.6004 23.7621 20.358 24.3459 20.1637C24.9296 19.9694 25.7726 19.6217 26.2194 19.391C26.666 19.1603 27.2592 18.7994 27.5376 18.5889C27.8159 18.3785 28.2012 18.0437 28.3938 17.8449L28.7441 17.4835L29.1812 17.8657C29.4216 18.076 29.935 18.4396 30.3222 18.6737ZM21.9817 29.3712C22.3157 29.5932 22.8464 29.8953 23.1612 30.0426C23.4759 30.1899 24.053 30.3922 24.4437 30.492C24.9283 30.6159 25.4445 30.6737 26.0681 30.6737C26.6884 30.6737 27.2106 30.6157 27.6925 30.4932C28.0832 30.3939 28.7389 30.152 29.1497 29.9557C29.5605 29.7593 30.0737 29.4714 30.2901 29.316L30.6838 29.0333L33.8506 29.8244C36.2002 30.4114 37.1787 30.6962 37.6422 30.9281C38.0333 31.1237 38.471 31.4456 38.8124 31.7887C39.1124 32.09 39.4679 32.5585 39.6024 32.8297C39.7369 33.1008 39.9098 33.5707 39.9866 33.8737C40.0878 34.2728 40.1194 34.7684 40.1013 35.6696L40.0762 36.9145H25.9784H11.8805L11.8877 35.6573C11.8918 34.962 11.9475 34.1795 12.0124 33.9063C12.0769 33.6347 12.245 33.1819 12.3859 32.9003C12.5268 32.6186 12.8897 32.1234 13.1923 31.7999C13.5908 31.374 13.9191 31.126 14.3829 30.9005C14.8312 30.6827 15.9662 30.348 18.1662 29.7849C19.8947 29.3425 21.3237 28.9775 21.3419 28.974C21.3599 28.9704 21.6479 29.1492 21.9817 29.3712Z" fill="#BDBDBD"/>
</svg>
